<?xml version="1.0" encoding="UTF-8"?>
<!DOCTYPE svg PUBLIC "-//W3C//DTD SVG 1.1//EN" "http://www.w3.org/Graphics/SVG/1.1/DTD/svg11.dtd">
<!-- Creator: CorelDRAW 2018 (64 Bit) -->
<svg xmlns="http://www.w3.org/2000/svg" xml:space="preserve" width="487px" height="436px" version="1.1" style="shape-rendering:geometricPrecision; text-rendering:geometricPrecision; image-rendering:optimizeQuality; fill-rule:evenodd; clip-rule:evenodd"
viewBox="0 0 108.35 97.08"
 xmlns:xlink="http://www.w3.org/1999/xlink">
 <defs>
  <style type="text/css">
   <![CDATA[
    .fil0 {fill:white}
   ]]>
  </style>
 </defs>
 <g id="Capa_x0020_1">
  <metadata id="CorelCorpID_0Corel-Layer"/>
  <g id="_2243416390160">
   <path class="fil0" d="M25.27 0l0 44.65c0,28 26.4,29.82 28.91,29.82 2.5,0 28.9,-1.82 28.9,-29.82l0 -44.65 -57.81 0zm0.4 0.52l0 44.03c0,27.61 26.04,29.4 28.51,29.4 2.47,0 28.5,-1.79 28.5,-29.4l0 -44.03 -57.01 0z"/>
   <g>
    <path class="fil0" d="M18.95 85.24c3.27,0 5.72,2.07 5.72,5.45 0,3.26 -2.3,5.95 -5.81,5.95 -3.98,0 -5.64,-3.1 -5.64,-5.71 0,-2.36 1.72,-5.69 5.73,-5.69zm0.31 10.85c1.31,0 4.01,-0.76 4.01,-4.99 0,-3.49 -2.12,-5.36 -4.42,-5.36 -2.43,0 -4.25,1.59 -4.25,4.78 0,3.39 2.04,5.57 4.66,5.57z"/>
    <path class="fil0" d="M28.25 92.41c0,2.14 0.06,3.07 0.32,3.33 0.24,0.23 0.61,0.34 1.75,0.34 0.77,0 1.41,-0.02 1.76,-0.44 0.19,-0.23 0.33,-0.6 0.38,-0.87 0.01,-0.12 0.04,-0.19 0.13,-0.19 0.07,0 0.08,0.06 0.08,0.22 0,0.16 -0.1,1.03 -0.21,1.45 -0.1,0.33 -0.15,0.39 -0.92,0.39 -1.05,0 -1.8,-0.03 -2.41,-0.04 -0.62,-0.03 -1.07,-0.04 -1.49,-0.04 -0.06,0 -0.3,0.01 -0.59,0.01 -0.3,0.01 -0.62,0.03 -0.83,0.03 -0.16,0 -0.24,-0.03 -0.24,-0.12 0,-0.04 0.03,-0.08 0.12,-0.08 0.13,0 0.31,-0.03 0.44,-0.06 0.29,-0.06 0.36,-0.38 0.42,-0.8 0.07,-0.61 0.07,-1.76 0.07,-3.16l0 -2.56c0,-2.27 0,-2.67 -0.03,-3.14 -0.03,-0.49 -0.14,-0.73 -0.62,-0.83 -0.12,-0.03 -0.37,-0.04 -0.5,-0.04 -0.06,0 -0.11,-0.03 -0.11,-0.09 0,-0.09 0.07,-0.12 0.23,-0.12 0.65,0 1.57,0.05 1.64,0.05 0.08,0 1.14,-0.05 1.57,-0.05 0.16,0 0.24,0.03 0.24,0.12 0,0.06 -0.06,0.09 -0.12,0.09 -0.1,0 -0.31,0.01 -0.48,0.04 -0.42,0.07 -0.54,0.32 -0.57,0.83 -0.03,0.47 -0.03,0.87 -0.03,3.14l0 2.59z"/>
    <path class="fil0" d="M46.39 94.77c0.06,0.52 0.16,1.34 0.79,1.54 0.42,0.13 0.8,0.13 0.94,0.13 0.08,0 0.12,0.01 0.12,0.07 0,0.09 -0.13,0.13 -0.31,0.13 -0.32,0 -1.89,-0.04 -2.43,-0.08 -0.33,-0.03 -0.4,-0.08 -0.4,-0.15 0,-0.06 0.03,-0.09 0.1,-0.1 0.07,-0.02 0.09,-0.26 0.06,-0.53l-0.7 -7.5 -0.05 0 -3.56 7.56c-0.3,0.64 -0.35,0.77 -0.48,0.77 -0.1,0 -0.17,-0.14 -0.45,-0.67 -0.38,-0.71 -1.63,-3.22 -1.7,-3.37 -0.13,-0.26 -1.76,-3.75 -1.92,-4.15l-0.06 0 -0.58 6.75c-0.01,0.24 -0.01,0.5 -0.01,0.75 0,0.22 0.15,0.4 0.37,0.45 0.25,0.05 0.47,0.07 0.56,0.07 0.05,0 0.11,0.03 0.11,0.07 0,0.1 -0.09,0.13 -0.26,0.13 -0.54,0 -1.24,-0.04 -1.35,-0.04 -0.13,0 -0.83,0.04 -1.22,0.04 -0.15,0 -0.25,-0.03 -0.25,-0.13 0,-0.04 0.07,-0.07 0.14,-0.07 0.12,0 0.22,0 0.44,-0.04 0.48,-0.09 0.52,-0.66 0.58,-1.21l1.05 -9.48c0.01,-0.17 0.07,-0.27 0.16,-0.27 0.09,0 0.15,0.06 0.22,0.22l4.45 9.15 4.27 -9.14c0.06,-0.13 0.12,-0.23 0.22,-0.23 0.1,0 0.15,0.12 0.18,0.4l0.97 8.93z"/>
    <path class="fil0" d="M50.84 89.82c0,-2.27 0,-2.67 -0.03,-3.14 -0.03,-0.49 -0.14,-0.73 -0.62,-0.83 -0.12,-0.03 -0.36,-0.04 -0.5,-0.04 -0.06,0 -0.11,-0.03 -0.11,-0.09 0,-0.09 0.07,-0.12 0.23,-0.12 0.33,0 0.73,0 1.05,0.02l0.59 0.03c0.11,0 3,0 3.33,-0.02 0.28,-0.01 0.51,-0.04 0.63,-0.07 0.07,-0.02 0.13,-0.07 0.2,-0.07 0.05,0 0.06,0.05 0.06,0.13 0,0.1 -0.07,0.27 -0.12,0.68 -0.01,0.15 -0.04,0.79 -0.07,0.96 -0.01,0.07 -0.04,0.16 -0.1,0.16 -0.09,0 -0.12,-0.07 -0.12,-0.19 0,-0.1 -0.01,-0.34 -0.08,-0.52 -0.1,-0.23 -0.25,-0.41 -1.04,-0.5 -0.24,-0.02 -1.83,-0.04 -1.99,-0.04 -0.06,0 -0.09,0.04 -0.09,0.15l0 4.01c0,0.1 0.02,0.15 0.09,0.15 0.19,0 1.98,0 2.32,-0.03 0.34,-0.03 0.55,-0.06 0.68,-0.21 0.1,-0.11 0.16,-0.19 0.22,-0.19 0.04,0 0.07,0.03 0.07,0.12 0,0.09 -0.07,0.34 -0.12,0.82 -0.03,0.28 -0.06,0.82 -0.06,0.93 0,0.11 0,0.27 -0.1,0.27 -0.07,0 -0.1,-0.05 -0.1,-0.13 0,-0.14 0,-0.29 -0.06,-0.48 -0.06,-0.2 -0.19,-0.45 -0.75,-0.51 -0.4,-0.04 -1.84,-0.07 -2.08,-0.07 -0.08,0 -0.11,0.04 -0.11,0.1l0 1.28c0,0.49 -0.01,2.18 0,2.49 0.05,1 0.27,1.19 1.69,1.19 0.38,0 1.02,0 1.4,-0.16 0.37,-0.16 0.55,-0.45 0.65,-1.05 0.03,-0.16 0.06,-0.21 0.13,-0.21 0.09,0 0.09,0.11 0.09,0.21 0,0.12 -0.12,1.11 -0.19,1.41 -0.1,0.38 -0.22,0.38 -0.78,0.38 -1.1,0 -1.9,-0.03 -2.46,-0.04 -0.57,-0.03 -0.92,-0.04 -1.14,-0.04 -0.03,0 -0.27,0 -0.58,0.01 -0.29,0 -0.62,0.03 -0.84,0.03 -0.16,0 -0.23,-0.03 -0.23,-0.12 0,-0.04 0.03,-0.08 0.11,-0.08 0.13,0 0.31,-0.03 0.44,-0.06 0.29,-0.06 0.36,-0.38 0.42,-0.8 0.07,-0.61 0.07,-1.76 0.07,-3.16l0 -2.56z"/>
    <path class="fil0" d="M60.11 94.56c0.03,1.2 0.17,1.57 0.57,1.69 0.27,0.07 0.59,0.09 0.72,0.09 0.07,0 0.12,0.03 0.12,0.08 0,0.09 -0.09,0.12 -0.26,0.12 -0.83,0 -1.41,-0.04 -1.55,-0.04 -0.13,0 -0.74,0.04 -1.39,0.04 -0.15,0 -0.23,-0.01 -0.23,-0.12 0,-0.05 0.04,-0.08 0.11,-0.08 0.12,0 0.38,-0.02 0.6,-0.09 0.36,-0.1 0.43,-0.52 0.43,-1.85l0.02 -8.33c0,-0.57 0.04,-0.73 0.16,-0.73 0.12,0 0.36,0.32 0.51,0.47 0.22,0.24 2.38,2.58 4.62,4.99 1.44,1.54 3.03,3.31 3.49,3.79l-0.16 -7.39c-0.01,-0.94 -0.11,-1.26 -0.56,-1.38 -0.26,-0.06 -0.6,-0.07 -0.72,-0.07 -0.1,0 -0.11,-0.04 -0.11,-0.1 0,-0.09 0.11,-0.11 0.29,-0.11 0.65,0 1.35,0.05 1.51,0.05 0.16,0 0.64,-0.05 1.24,-0.05 0.16,0 0.26,0.02 0.26,0.11 0,0.06 -0.06,0.1 -0.16,0.1 -0.07,0 -0.17,0 -0.35,0.04 -0.48,0.1 -0.54,0.42 -0.54,1.3l-0.03 8.52c0,0.96 -0.03,1.03 -0.13,1.03 -0.11,0 -0.29,-0.16 -1.06,-0.93 -0.16,-0.14 -2.25,-2.28 -3.8,-3.94 -1.68,-1.82 -3.33,-3.65 -3.79,-4.17l0.19 6.96z"/>
    <path class="fil0" d="M75.4 86.01c0.18,-0.48 0.24,-0.57 0.32,-0.57 0.09,0 0.15,0.08 0.32,0.53 0.22,0.55 2.5,6.56 3.39,8.77 0.53,1.29 0.95,1.52 1.25,1.61 0.22,0.07 0.44,0.09 0.59,0.09 0.08,0 0.14,0.01 0.14,0.09 0,0.08 -0.13,0.11 -0.29,0.11 -0.22,0 -1.28,0 -2.28,-0.03 -0.28,-0.01 -0.44,-0.01 -0.44,-0.1 0,-0.06 0.04,-0.09 0.1,-0.1 0.09,-0.03 0.18,-0.16 0.09,-0.39l-1.35 -3.58c-0.03,-0.06 -0.06,-0.09 -0.13,-0.09l-3.13 0c-0.07,0 -0.12,0.05 -0.15,0.12l-0.87 2.57c-0.13,0.37 -0.2,0.71 -0.2,0.98 0,0.29 0.3,0.42 0.55,0.42l0.14 0c0.11,0 0.15,0.03 0.15,0.09 0,0.08 -0.09,0.11 -0.22,0.11 -0.35,0 -0.97,-0.04 -1.13,-0.04 -0.16,0 -0.96,0.04 -1.65,0.04 -0.18,0 -0.27,-0.03 -0.27,-0.11 0,-0.06 0.06,-0.09 0.13,-0.09 0.1,0 0.3,-0.02 0.42,-0.03 0.67,-0.09 0.96,-0.64 1.22,-1.37l3.3 -9.03zm1.52 5.82c0.07,0 0.07,-0.05 0.06,-0.1l-1.39 -3.93c-0.07,-0.22 -0.14,-0.22 -0.21,0l-1.29 3.93c-0.03,0.07 0,0.1 0.05,0.1l2.78 0z"/>
    <path class="fil0" d="M83.49 89.87c0,-2.27 0,-2.68 -0.03,-3.15 -0.03,-0.49 -0.14,-0.72 -0.62,-0.83 -0.12,-0.03 -0.37,-0.04 -0.5,-0.04 -0.06,0 -0.11,-0.03 -0.11,-0.09 0,-0.09 0.07,-0.11 0.23,-0.11 0.65,0 1.57,0.04 1.64,0.04 0.16,0 1.27,-0.04 1.72,-0.04 0.91,0 1.89,0.09 2.66,0.64 0.36,0.26 1,0.97 1,1.98 0,1.07 -0.45,2.15 -1.76,3.36 1.2,1.52 2.19,2.82 3.03,3.72 0.78,0.83 1.41,0.99 1.78,1.05 0.27,0.04 0.48,0.04 0.56,0.04 0.08,0 0.13,0.04 0.13,0.09 0,0.08 -0.08,0.11 -0.35,0.11l-1.03 0c-0.82,0 -1.18,-0.07 -1.56,-0.27 -0.62,-0.34 -1.13,-1.05 -1.96,-2.14 -0.61,-0.8 -1.3,-1.78 -1.59,-2.15 -0.05,-0.06 -0.1,-0.09 -0.18,-0.09l-1.79 -0.03c-0.08,0 -0.1,0.04 -0.1,0.12l0 0.34c0,1.4 0,2.55 0.07,3.16 0.04,0.42 0.13,0.74 0.56,0.8 0.21,0.03 0.53,0.06 0.66,0.06 0.09,0 0.12,0.04 0.12,0.09 0,0.07 -0.08,0.11 -0.24,0.11 -0.8,0 -1.71,-0.04 -1.79,-0.04 -0.01,0 -0.93,0.04 -1.36,0.04 -0.16,0 -0.24,-0.03 -0.24,-0.11 0,-0.05 0.03,-0.09 0.12,-0.09 0.13,0 0.31,-0.03 0.44,-0.06 0.29,-0.06 0.36,-0.38 0.42,-0.8 0.07,-0.61 0.07,-1.76 0.07,-3.16l0 -2.55zm1.17 1.26c0,0.07 0.02,0.13 0.1,0.17 0.22,0.14 0.88,0.24 1.52,0.24 0.35,0 0.76,-0.05 1.09,-0.28 0.51,-0.35 0.89,-1.13 0.89,-2.24 0,-1.82 -0.96,-2.91 -2.51,-2.91 -0.44,0 -0.83,0.05 -0.98,0.09 -0.07,0.03 -0.11,0.09 -0.11,0.17l0 4.76z"/>
    <path class="fil0" d="M94.46 89.82c0,-2.27 0,-2.67 -0.03,-3.14 -0.03,-0.49 -0.15,-0.73 -0.63,-0.83 -0.11,-0.03 -0.36,-0.04 -0.49,-0.04 -0.06,0 -0.12,-0.03 -0.12,-0.09 0,-0.09 0.08,-0.12 0.24,-0.12 0.33,0 0.72,0 1.04,0.02l0.6 0.03c0.1,0 3,0 3.33,-0.02 0.28,-0.01 0.51,-0.04 0.63,-0.07 0.07,-0.02 0.13,-0.07 0.2,-0.07 0.04,0 0.06,0.05 0.06,0.13 0,0.1 -0.07,0.27 -0.12,0.68 -0.01,0.15 -0.04,0.79 -0.07,0.96 -0.02,0.07 -0.05,0.16 -0.1,0.16 -0.09,0 -0.12,-0.07 -0.12,-0.19 0,-0.1 -0.01,-0.34 -0.09,-0.52 -0.1,-0.23 -0.24,-0.41 -1.03,-0.5 -0.25,-0.02 -1.83,-0.04 -1.99,-0.04 -0.06,0 -0.09,0.04 -0.09,0.15l0 4.01c0,0.1 0.02,0.15 0.09,0.15 0.19,0 1.98,0 2.31,-0.03 0.35,-0.03 0.55,-0.06 0.68,-0.21 0.11,-0.11 0.16,-0.19 0.22,-0.19 0.05,0 0.07,0.03 0.07,0.12 0,0.09 -0.07,0.34 -0.11,0.82 -0.03,0.28 -0.06,0.82 -0.06,0.93 0,0.11 0,0.27 -0.1,0.27 -0.07,0 -0.1,-0.05 -0.1,-0.13 0,-0.14 0,-0.29 -0.06,-0.48 -0.06,-0.2 -0.19,-0.45 -0.76,-0.51 -0.39,-0.04 -1.83,-0.07 -2.08,-0.07 -0.07,0 -0.1,0.04 -0.1,0.1l0 1.28c0,0.49 -0.01,2.18 0,2.49 0.04,1 0.26,1.19 1.69,1.19 0.38,0 1.02,0 1.39,-0.16 0.38,-0.16 0.56,-0.45 0.66,-1.05 0.03,-0.16 0.06,-0.21 0.13,-0.21 0.09,0 0.09,0.11 0.09,0.21 0,0.12 -0.12,1.11 -0.19,1.41 -0.1,0.38 -0.22,0.38 -0.79,0.38 -1.09,0 -1.89,-0.03 -2.45,-0.04 -0.57,-0.03 -0.92,-0.04 -1.14,-0.04 -0.03,0 -0.28,0 -0.58,0.01 -0.29,0 -0.63,0.03 -0.85,0.03 -0.15,0 -0.23,-0.03 -0.23,-0.12 0,-0.04 0.03,-0.08 0.12,-0.08 0.13,0 0.3,-0.03 0.43,-0.06 0.29,-0.06 0.37,-0.38 0.43,-0.8 0.07,-0.61 0.07,-1.76 0.07,-3.16l0 -2.56z"/>
    <path class="fil0" d="M2.11 94.76c-1.69,-1.52 -2.11,-3.51 -2.11,-5.17 0,-1.17 0.4,-3.22 1.96,-4.77 1.04,-1.05 2.63,-1.87 5.32,-1.87 0.7,0 1.68,0.05 2.54,0.21 0.66,0.12 1.22,0.23 1.78,0.26 0.19,0.02 0.22,0.09 0.22,0.19 0,0.15 -0.05,0.36 -0.08,0.98 -0.04,0.58 -0.04,1.54 -0.06,1.8 -0.01,0.26 -0.05,0.37 -0.15,0.37 -0.13,0 -0.14,-0.12 -0.14,-0.37 0,-0.68 -0.28,-1.4 -0.74,-1.78 -0.61,-0.52 -1.95,-1 -3.49,-1 -2.32,0 -3.4,0.69 -4.02,1.28 -1.27,1.22 -1.57,2.78 -1.57,4.56 0,3.33 2.57,6.39 6.31,6.39 1.31,0 2.34,-0.16 3.04,-0.87 0.36,-0.39 0.59,-1.15 0.64,-1.47 0.04,-0.19 0.07,-0.26 0.18,-0.26 0.08,0 0.12,0.12 0.12,0.26 0,0.12 -0.21,1.64 -0.39,2.24 -0.1,0.33 -0.14,0.36 -0.45,0.5 -0.7,0.28 -2.03,0.4 -3.14,0.4 -2.62,0 -4.39,-0.64 -5.77,-1.88z"/>
    <path class="fil0" d="M101.77 96.59c-0.25,-0.12 -0.27,-0.19 -0.27,-0.67 0,-0.89 0.08,-1.6 0.09,-1.88 0.02,-0.2 0.06,-0.29 0.15,-0.29 0.1,0 0.12,0.05 0.12,0.2 0,0.15 0,0.4 0.05,0.65 0.27,1.32 1.44,1.82 2.64,1.82 1.7,0 2.54,-1.23 2.54,-2.37 0,-1.22 -0.52,-1.94 -2.05,-3.2l-0.8 -0.66c-1.88,-1.55 -2.31,-2.65 -2.31,-3.86 0,-1.9 1.42,-3.2 3.68,-3.2 0.7,0 1.21,0.07 1.66,0.18 0.33,0.07 0.48,0.09 0.62,0.09 0.14,0 0.18,0.03 0.18,0.12 0,0.09 -0.07,0.68 -0.07,1.89 0,0.28 -0.04,0.41 -0.13,0.41 -0.11,0 -0.12,-0.09 -0.14,-0.23 -0.02,-0.22 -0.13,-0.7 -0.23,-0.89 -0.11,-0.2 -0.59,-0.94 -2.22,-0.94 -1.23,0 -2.19,0.76 -2.19,2.06 0,1.01 0.46,1.65 2.17,2.99l0.5 0.39c2.09,1.65 2.59,2.75 2.59,4.18 0,0.72 -0.28,2.08 -1.51,2.95 -0.76,0.53 -1.73,0.75 -2.69,0.75 -0.83,0 -1.65,-0.13 -2.38,-0.49z"/>
   </g>
   <path class="fil0" d="M28.7 3.21l0 41.77c0,24.68 23.27,26.28 25.47,26.28 2.22,0 25.48,-1.6 25.48,-26.28l0 -41.77 -50.95 0zm48.71 41.11c0,22.59 -21.22,24.06 -23.24,24.06 -2.01,0 -23.23,-1.47 -23.23,-24.06l0 -38.23 46.47 0 0 38.23z"/>
   <g>
    <polygon class="fil0" points="59.47,61.09 63.36,61.09 62.61,60.34 62.61,55.41 64.87,53.67 62.37,53.95 61.56,51.46 60.98,52.97 59.7,52.21 60.29,54.48 58.08,54.07 60.23,55.58 60.23,60.11 "/>
    <path class="fil0" d="M71.02 39.1c0,0 -1.8,2.96 1.28,3.43 0,0 1.16,-2.04 -1.28,-3.43z"/>
    <path class="fil0" d="M61.62 34.46c0,0 -2.74,2.12 -0.03,3.65 0,0 1.81,-1.48 0.03,-3.65z"/>
    <path class="fil0" d="M57.38 35.56c0,0 -0.43,3.44 2.57,2.6 0,0 0.23,-2.32 -2.57,-2.6z"/>
    <path class="fil0" d="M68.58 42.76c0,0 0.23,3.45 3.01,2.07 0,0 -0.21,-2.33 -3.01,-2.07z"/>
    <path class="fil0" d="M71.19 47.27c0,0 3.42,0.6 2.72,-2.44 0,0 -2.31,-0.33 -2.72,2.44z"/>
    <path class="fil0" d="M68.28 53.38c0,0 3.02,1.68 3.37,-1.41 0,0 -2.07,-1.08 -3.37,1.41z"/>
    <path class="fil0" d="M66.94 43.82c0,0 -2.63,2.54 0.91,3.64 0,0 1.71,-1.76 -0.91,-3.64z"/>
    <path class="fil0" d="M66.03 41.36c0,0 2.69,2.18 3.56,-0.81 0,0 -1.85,-1.42 -3.56,0.81z"/>
    <path class="fil0" d="M64.57 40.93c0,0 -2.24,3.13 0.74,4.06 0,0 1.46,-2.15 -0.74,-4.06z"/>
    <path class="fil0" d="M62.94 39.65c0,0 -2.86,-1.95 -3.48,1.1 0,0 1.97,1.26 3.48,-1.1z"/>
    <path class="fil0" d="M61.78 41.86c0,0 -2.63,2.24 0.15,3.65 0,0 1.73,-1.57 -0.15,-3.65z"/>
    <path class="fil0" d="M62.29 50.66c0,0 2.22,2.67 3.66,-0.09 0,0 -1.55,-1.76 -3.66,0.09z"/>
    <path class="fil0" d="M63.58 46.62c0,0 0.15,3.46 2.97,2.14 0,0 -0.17,-2.34 -2.97,-2.14z"/>
    <path class="fil0" d="M60.04 46.21c0,0 -0.81,3.37 2.27,2.87 0,0 0.48,-2.29 -2.27,-2.87z"/>
    <path class="fil0" d="M57.2 50.04c0,0 2.22,2.66 3.65,-0.1 0,0 -1.54,-1.75 -3.65,0.1z"/>
    <path class="fil0" d="M55.17 49.67c0,0 3.3,-1.06 1.28,-3.43 0,0 -2.21,0.77 -1.28,3.43z"/>
    <path class="fil0" d="M54.53 51.23c0,0 1.27,-3.22 -1.84,-3.16 0,0 -0.8,2.21 1.84,3.16z"/>
    <path class="fil0" d="M54.95 52.51c0,0 -2.26,-2.63 -3.66,0.15 0,0 1.58,1.73 3.66,-0.15z"/>
    <path class="fil0" d="M58.28 52.15c0,0 -3.35,-0.89 -2.92,2.19 0,0 2.27,0.54 2.92,-2.19z"/>
    <path class="fil0" d="M51.32 49.84c0,0 0.17,-3.46 -2.75,-2.4 0,0 -0.05,2.34 2.75,2.4z"/>
    <path class="fil0" d="M52.33 45.95c0,0 2.63,2.24 3.58,-0.72 0,0 -1.83,-1.47 -3.58,0.72z"/>
    <path class="fil0" d="M51.16 47.11c0,0 1.38,-3.6 -1.74,-3.76 0,0 -0.87,2.47 1.74,3.76z"/>
    <path class="fil0" d="M65.15 53.4c0,0 3.29,1.09 3.05,-2.01 0,0 -2.25,-0.67 -3.05,2.01z"/>
    <path class="fil0" d="M69.38 46.62c0,0 -3.09,1.54 -0.74,3.57 0,0 2.06,-1.09 0.74,-3.57z"/>
    <path class="fil0" d="M73.28 48.47c0,0 -3.36,-0.87 -2.91,2.21 0,0 2.27,0.53 2.91,-2.21z"/>
    <path class="fil0" d="M63.48 38.81c0,0 3.18,-1.37 0.94,-3.54 0,0 -2.13,0.99 -0.94,3.54z"/>
    <path class="fil0" d="M56.53 41.2c0,0 0.9,3.35 3.36,1.45 0,0 -0.66,-2.24 -3.36,-1.45z"/>
    <path class="fil0" d="M57.52 44.04c0,0 -1.38,3.18 1.74,3.22 0,0 0.87,-2.17 -1.74,-3.22z"/>
    <path class="fil0" d="M53.34 40.91c0,0 -0.53,3.42 2.49,2.68 0,0 0.3,-2.33 -2.49,-2.68z"/>
    <path class="fil0" d="M51.43 39.46c0,0 -2.39,2.51 0.52,3.62 0,0 1.57,-1.75 -0.52,-3.62z"/>
    <path class="fil0" d="M53.89 37.08c0,0 -0.49,3.44 2.52,2.64 0,0 0.26,-2.32 -2.52,-2.64z"/>
    <path class="fil0" d="M66.03 39.57c0,0 3.45,-0.37 1.95,-3.1 0,0 -2.32,0.31 -1.95,3.1z"/>
   </g>
   <polygon class="fil0" points="37.39,25.49 34.33,20.16 37.39,14.84 43.48,14.84 46.53,20.16 43.48,25.49 "/>
   <polygon class="fil0" points="37.39,37.39 34.33,32.06 37.39,26.74 43.48,26.74 46.53,32.06 43.48,37.39 "/>
   <polygon class="fil0" points="47.55,31.56 44.5,26.23 47.55,20.91 53.65,20.91 56.7,26.23 53.65,31.56 "/>
   <polygon class="fil0" points="47.55,19.85 44.5,14.53 47.55,9.21 53.65,9.21 56.7,14.53 53.65,19.85 "/>
   <polygon class="fil0" points="57.83,25.49 54.78,20.16 57.83,14.84 63.93,14.84 66.98,20.16 63.93,25.49 "/>
  </g>
 </g>
</svg>
