<?xml version="1.0" encoding="UTF-8"?>
<!DOCTYPE svg PUBLIC "-//W3C//DTD SVG 1.1//EN" "http://www.w3.org/Graphics/SVG/1.1/DTD/svg11.dtd">
<!-- Creator: CorelDRAW 2018 (64 Bit) -->
<svg xmlns="http://www.w3.org/2000/svg" xml:space="preserve" width="1567px" height="181px" version="1.1" style="shape-rendering:geometricPrecision; text-rendering:geometricPrecision; image-rendering:optimizeQuality; fill-rule:evenodd; clip-rule:evenodd"
viewBox="0 0 3592.84 414.79"
 xmlns:xlink="http://www.w3.org/1999/xlink">
 <defs>
  <style type="text/css">
   <![CDATA[
    .fil0 {fill:white}
    .fil1 {fill:white;fill-rule:nonzero}
   ]]>
  </style>
 </defs>
 <g id="Capa_x0020_1">
  <metadata id="CorelCorpID_0Corel-Layer"/>
  <g id="_2243299222944">
   <path class="fil0" d="M158.7 275.01c58.24,0 105.69,-45.57 105.69,-106.17l0.02 -168.84 -211.5 0.07 0.09 169.04c0,60.59 47.44,105.9 105.7,105.9zm-0.02 -10.57c52.44,0 95.13,-40.8 95.13,-95.51l-0.02 -158.02 -190.27 -0.33 0.04 158.34c0,54.71 42.69,95.52 95.12,95.52zm0 -5.29c49.52,0 89.84,-38.41 89.84,-90.18l-0.19 -152.77 -179.52 -0.33 0.04 153.08c0,51.77 40.31,90.2 89.83,90.2zm0 -5.29c46.61,0 84.54,-35.99 84.54,-84.83l0.05 -147.87 -168.96 0.33 -0.17 147.53c0,48.83 37.94,84.84 84.54,84.84zm42.33 -101.54c2.33,0 4.24,1.9 4.24,4.23l-0.04 12.69 16.94 0c0,-10.51 -4.28,-21.23 -8.43,-29.6 2.22,-2.12 4.29,-5.38 4.29,-8.5l0 -14.79 -8.5 0 0 6.42 -4.27 0 -0.02 -6.41 -8.44 0 0 6.48 -4.19 -0.03 -0.03 -6.45 -8.57 0c0.01,4.95 0.02,9.89 0.03,14.84 0.03,2.96 2.14,6.29 4.39,8.47 -4.13,8.21 -8.57,19.05 -8.57,29.52l16.95 0.04 -0.03 -12.68c0,-2.33 1.91,-4.23 4.25,-4.23zm-84.62 0c2.33,0 4.24,1.9 4.24,4.23l-0.04 12.69 16.94 0c0,-10.51 -4.28,-21.23 -8.43,-29.6 2.22,-2.12 4.29,-5.38 4.29,-8.5l0 -14.79 -8.5 0 0 6.42 -4.27 0 -0.02 -6.41 -8.44 0 0 6.48 -4.19 -0.03 -0.03 -6.45 -8.57 0c0.01,4.95 0.02,9.89 0.03,14.84 0.03,2.96 2.14,6.29 4.39,8.47 -4.12,8.21 -8.57,19.05 -8.57,29.52l16.95 0.04 -0.03 -12.68c0,-2.33 1.91,-4.23 4.25,-4.23zm42.31 -74.04c2.33,0 4.24,1.9 4.24,4.23l-0.04 12.69 16.94 0c0,-10.51 -4.28,-21.23 -8.43,-29.6 2.22,-2.12 4.29,-5.38 4.29,-8.5l0.01 -14.79 -8.51 0 0 6.42 -4.27 0 -0.02 -6.42 -8.44 0.01 0 6.48 -4.19 -0.03 -0.03 -6.45 -8.57 0c0.01,4.95 0.02,9.89 0.03,14.83 0.03,2.97 2.14,6.29 4.39,8.48 -4.13,8.2 -8.57,19.05 -8.57,29.51l16.95 0.05 -0.03 -12.68c0,-2.33 1.91,-4.23 4.25,-4.23z"/>
   <path class="fil0" d="M52.54 335.47l3.97 0c-0.3,2.47 -1.43,4.34 -3.4,5.64 -1.96,1.29 -4.66,1.94 -8.1,1.94 -4.14,0 -7.39,-1.13 -9.74,-3.39 -2.36,-2.25 -3.54,-5.35 -3.54,-9.31 0,-3.9 1.22,-7 3.66,-9.27 2.44,-2.28 5.76,-3.42 9.96,-3.42 3.29,0 5.88,0.61 7.77,1.83 1.89,1.21 2.93,2.92 3.11,5.14l-3.94 0c-0.16,-1.3 -0.89,-2.32 -2.17,-3.07 -1.28,-0.76 -2.94,-1.14 -4.98,-1.14 -3.03,0 -5.4,0.87 -7.11,2.62 -1.71,1.74 -2.57,4.18 -2.57,7.31 0,3.21 0.87,5.68 2.61,7.4 1.74,1.73 4.23,2.6 7.47,2.6 2.04,0 3.68,-0.44 4.91,-1.3 1.23,-0.85 1.93,-2.05 2.09,-3.58zm44.03 -5.12c0,-2.86 -0.94,-5.2 -2.82,-7.03 -1.87,-1.82 -4.27,-2.73 -7.21,-2.73 -3,0 -5.45,0.91 -7.34,2.72 -1.89,1.81 -2.84,4.16 -2.84,7.04 0,2.88 0.94,5.21 2.82,7.01 1.88,1.8 4.32,2.7 7.33,2.7 2.98,0 5.39,-0.9 7.26,-2.7 1.86,-1.8 2.8,-4.13 2.8,-7.01zm-10.1 12.66c-2.08,0 -3.93,-0.28 -5.53,-0.83 -1.61,-0.56 -3.04,-1.41 -4.3,-2.55 -1.32,-1.22 -2.33,-2.62 -3.03,-4.2 -0.69,-1.59 -1.05,-3.28 -1.05,-5.08 0,-1.82 0.36,-3.53 1.05,-5.13 0.7,-1.6 1.71,-2.99 3.03,-4.18 1.27,-1.15 2.71,-2 4.32,-2.56 1.6,-0.55 3.44,-0.82 5.51,-0.82 2.08,0 3.92,0.28 5.53,0.83 1.62,0.56 3.06,1.41 4.32,2.55 1.32,1.19 2.33,2.58 3.04,4.18 0.7,1.6 1.05,3.31 1.05,5.13 0,1.82 -0.35,3.51 -1.05,5.1 -0.69,1.59 -1.71,2.98 -3.04,4.18 -1.27,1.14 -2.71,1.99 -4.32,2.55 -1.61,0.55 -3.45,0.83 -5.53,0.83zm32.58 -0.38l0 -24.57 3.56 0 0 21.54 14.48 0 0 3.03 -18.04 0zm35.28 0l0 -24.57 18.81 0 0 2.92 -15.35 0 0 7.19 14.26 0 0 2.94 -14.26 0 0 8.46 15.81 0 0 3.06 -19.27 0zm61.41 -2.11c-1.82,0.83 -3.71,1.46 -5.66,1.88 -1.96,0.43 -3.93,0.65 -5.93,0.65 -4.46,0 -7.98,-1.12 -10.53,-3.37 -2.55,-2.24 -3.82,-5.3 -3.82,-9.19 0,-4.02 1.32,-7.16 3.96,-9.41 2.64,-2.26 6.33,-3.39 11.06,-3.39 3.08,0 5.55,0.61 7.42,1.83 1.88,1.22 2.94,2.89 3.19,5.04l-3.7 0c-0.33,-1.28 -1.13,-2.27 -2.4,-2.96 -1.28,-0.69 -2.91,-1.04 -4.92,-1.04 -3.35,0 -5.99,0.89 -7.93,2.67 -1.95,1.79 -2.91,4.2 -2.91,7.26 0,3.03 0.96,5.42 2.89,7.15 1.93,1.74 4.59,2.61 7.98,2.61 1.54,0 2.98,-0.13 4.29,-0.38 1.33,-0.25 2.51,-0.61 3.55,-1.09l0 -6.18 -7.77 0 0 -2.8 11.23 0 0 10.72zm19.68 2.11l0 -24.57 3.58 0 0 24.57 -3.58 0zm46.32 -12.28c0,-2.86 -0.94,-5.2 -2.81,-7.03 -1.87,-1.82 -4.28,-2.73 -7.21,-2.73 -3.01,0 -5.45,0.91 -7.35,2.72 -1.89,1.81 -2.83,4.16 -2.83,7.04 0,2.88 0.93,5.21 2.82,7.01 1.88,1.8 4.32,2.7 7.32,2.7 2.98,0 5.4,-0.9 7.27,-2.7 1.86,-1.8 2.79,-4.13 2.79,-7.01zm-10.09 12.66c-2.09,0 -3.94,-0.28 -5.54,-0.83 -1.6,-0.56 -3.04,-1.41 -4.3,-2.55 -1.31,-1.22 -2.32,-2.62 -3.02,-4.2 -0.7,-1.59 -1.05,-3.28 -1.05,-5.08 0,-1.82 0.35,-3.53 1.05,-5.13 0.7,-1.6 1.71,-2.99 3.02,-4.18 1.28,-1.15 2.71,-2 4.32,-2.56 1.6,-0.55 3.45,-0.82 5.52,-0.82 2.08,0 3.92,0.28 5.53,0.83 1.62,0.56 3.06,1.41 4.32,2.55 1.31,1.19 2.33,2.58 3.03,4.18 0.71,1.6 1.06,3.31 1.06,5.13 0,1.82 -0.35,3.51 -1.05,5.1 -0.7,1.59 -1.71,2.98 -3.04,4.18 -1.27,1.14 -2.72,1.99 -4.32,2.55 -1.61,0.55 -3.45,0.83 -5.53,0.83z"/>
   <path class="fil0" d="M20.09 358.24l10.82 0 14.49 36.84c0.78,1.96 1.48,3.18 2.09,3.63 0.62,0.46 1.74,0.68 3.36,0.65l0 6.6 -22.81 0 0 -6.6 1.38 -0.03c1.26,0 2.16,-0.17 2.67,-0.5 0.51,-0.33 0.76,-0.74 0.76,-1.22 0,-0.41 -0.22,-1.25 -0.67,-2.53l-1.41 -4.34 -14.7 0 -1.79 4.82c-0.36,1.03 -0.55,1.7 -0.55,2.02 0,0.36 0.13,0.7 0.4,0.99 0.26,0.3 0.69,0.52 1.29,0.65 0.39,0.1 1.48,0.14 3.25,0.14l0 6.6 -18.67 0 0 -6.6c1.19,0 2.08,-0.1 2.63,-0.31 0.55,-0.2 1.01,-0.51 1.36,-0.92 0.36,-0.41 0.75,-1.17 1.19,-2.29l14.91 -37.6zm-1.49 25.69l9.64 0 -4.69 -13.14 -4.95 13.14zm50.44 -28.19l0 40.03c0,1.34 0.06,2.15 0.18,2.39 0.15,0.46 0.52,0.79 1.07,1 0.34,0.13 1.27,0.2 2.8,0.2l1.2 0 0 6.6 -21.39 0 0 -6.6 1.31 0c1.39,0 2.27,-0.09 2.66,-0.25 0.39,-0.18 0.69,-0.45 0.86,-0.83 0.19,-0.37 0.29,-1.21 0.29,-2.51l0 -30.51 -5.12 0 0 -6.65c4.13,-0.27 8.39,-1.22 12.79,-2.87l3.35 0zm24.13 4.34l0 11.74 11.13 0 0 7.29 -11.13 0 0 11.91c0,2.68 0.15,4.41 0.44,5.18 0.29,0.76 0.82,1.37 1.61,1.82 1.03,0.62 2.21,0.93 3.56,0.93 2.37,0 4.73,-0.76 7.08,-2.29l0 7.32c-2,0.93 -3.82,1.59 -5.44,1.97 -1.63,0.37 -3.39,0.56 -5.27,0.56 -2.15,0 -4.04,-0.27 -5.69,-0.8 -1.66,-0.54 -3.06,-1.3 -4.22,-2.29 -1.16,-0.99 -1.97,-2.06 -2.42,-3.17 -0.46,-1.12 -0.68,-2.74 -0.68,-4.86l0 -16.28 -5.18 0 0 -6.57c1.84,-0.59 3.42,-1.44 4.73,-2.55 1.32,-1.1 2.38,-2.43 3.17,-3.99 0.8,-1.55 1.34,-3.52 1.65,-5.92l6.66 0zm37.94 25.19l0 -2.53c0,-1.51 -0.13,-2.55 -0.38,-3.12 -0.26,-0.57 -0.72,-1.04 -1.38,-1.41 -0.68,-0.39 -1.5,-0.58 -2.49,-0.58 -0.77,0 -1.45,0.13 -2.08,0.38 -0.63,0.25 -1.12,0.57 -1.49,0.96 -0.36,0.39 -0.79,1.14 -1.27,2.26 -0.63,1.41 -1.37,2.43 -2.23,3.05 -0.88,0.61 -1.89,0.92 -3.07,0.92 -1.48,0 -2.68,-0.46 -3.63,-1.38 -0.94,-0.91 -1.41,-2.03 -1.41,-3.38 0,-1.52 0.48,-2.89 1.45,-4.07 1.29,-1.57 3.21,-2.86 5.77,-3.86 2.56,-1.01 5.44,-1.51 8.64,-1.51 3.21,0 5.94,0.52 8.18,1.54 2.25,1.03 3.81,2.26 4.71,3.68 0.88,1.43 1.32,3.6 1.32,6.52l0 12.25c0,1.49 0.08,2.46 0.25,2.88 0.16,0.42 0.51,0.79 1.04,1.11 0.53,0.33 1.12,0.48 1.76,0.48 0.64,0 1.51,-0.18 2.59,-0.55l0 6.68c-1.96,0.62 -3.84,0.92 -5.64,0.92 -2.11,0 -3.93,-0.34 -5.42,-1.02 -1.5,-0.7 -2.76,-1.72 -3.77,-3.09 -2.3,1.48 -4.39,2.55 -6.28,3.17 -1.88,0.63 -3.7,0.94 -5.44,0.94 -3.3,0 -5.96,-0.92 -7.99,-2.76 -2.03,-1.83 -3.05,-4.09 -3.05,-6.79 0,-1.52 0.36,-2.92 1.07,-4.21 0.69,-1.27 1.74,-2.39 3.13,-3.35 1.41,-0.95 3.56,-1.8 6.47,-2.54 2.92,-0.75 6.47,-1.27 10.64,-1.59zm0 5.68c-3.03,0.43 -5.15,0.87 -6.4,1.31 -1.24,0.45 -2.14,1.01 -2.66,1.68 -0.53,0.67 -0.8,1.36 -0.8,2.06 0,0.93 0.34,1.68 1.04,2.3 0.69,0.61 1.63,0.92 2.8,0.92 0.76,0 1.65,-0.19 2.64,-0.58 1,-0.38 2.14,-0.96 3.38,-1.7l0 -5.99zm35.88 -19.95l0 4.55c2.01,-1.52 4.04,-2.67 6.12,-3.42 2.07,-0.76 4.19,-1.13 6.32,-1.13 1.37,0 2.67,0.2 3.93,0.6 1.25,0.4 2.3,0.92 3.14,1.55 0.85,0.64 1.62,1.51 2.3,2.6 2.25,-1.68 4.38,-2.89 6.43,-3.64 2.06,-0.74 4.15,-1.11 6.27,-1.11 1.84,0 3.51,0.33 5.01,1 1.5,0.65 2.71,1.55 3.64,2.68 0.93,1.12 1.55,2.35 1.82,3.68 0.19,0.82 0.28,2.02 0.28,3.58l0 14.17c0,1.16 0.09,1.91 0.26,2.26 0.17,0.34 0.46,0.6 0.88,0.79 0.3,0.13 1.14,0.2 2.52,0.2l1.52 0 0 6.6 -20.22 0 0 -6.6c1.49,0 2.44,-0.08 2.83,-0.22 0.4,-0.15 0.68,-0.39 0.87,-0.72 0.18,-0.33 0.27,-1.05 0.27,-2.17l0 -12.43c0,-1.43 -0.09,-2.38 -0.29,-2.85 -0.19,-0.46 -0.58,-0.86 -1.14,-1.2 -0.56,-0.33 -1.23,-0.49 -2.02,-0.49 -0.9,0 -1.87,0.2 -2.91,0.6 -1.04,0.39 -2.57,1.27 -4.6,2.61l0 13.38c0,1.32 0.09,2.15 0.28,2.5 0.18,0.34 0.51,0.6 0.97,0.79 0.27,0.11 1.18,0.18 2.73,0.2l0 6.6 -18.98 0 0 -6.6c1.57,-0.02 2.53,-0.1 2.87,-0.24 0.34,-0.14 0.61,-0.39 0.79,-0.75 0.19,-0.37 0.28,-1.2 0.28,-2.5l0 -11.73c0,-1.8 -0.16,-3 -0.48,-3.6 -0.51,-0.89 -1.41,-1.33 -2.7,-1.33 -0.64,0 -1.33,0.08 -2.04,0.23 -0.72,0.17 -1.42,0.42 -2.11,0.76 -0.36,0.19 -1.31,0.77 -2.83,1.78l-0.8 0.51 0 13.38c0,1.28 0.07,2.07 0.21,2.4 0.14,0.31 0.4,0.58 0.81,0.78 0.4,0.21 1.1,0.31 2.09,0.31l0.94 0 0 6.6 -20.2 0 0 -6.6 1.35 0c1.43,0 2.32,-0.08 2.68,-0.22 0.36,-0.15 0.64,-0.42 0.81,-0.79 0.19,-0.37 0.29,-1.2 0.29,-2.48l0 -15.4 -5.13 0 0 -6.6c4.22,-0.38 8.12,-1.34 11.69,-2.87l3.25 0zm65.73 -15.26c1.74,0 3.24,0.61 4.47,1.83 1.24,1.22 1.85,2.7 1.85,4.43 0,1.76 -0.61,3.24 -1.85,4.47 -1.23,1.21 -2.73,1.82 -4.47,1.82 -1.75,0 -3.25,-0.61 -4.47,-1.82 -1.24,-1.23 -1.86,-2.7 -1.86,-4.44 0,-1.7 0.64,-3.19 1.9,-4.42 1.26,-1.25 2.74,-1.87 4.43,-1.87zm5.6 15.26l0 25.28c0,1.21 0.06,1.95 0.2,2.22 0.15,0.28 0.39,0.49 0.75,0.64 0.35,0.14 1.15,0.22 2.4,0.22l1.87 0 0 6.6 -21.37 0 0 -6.6 1.84 0c1.19,0 1.96,-0.07 2.3,-0.19 0.33,-0.12 0.58,-0.33 0.74,-0.63 0.16,-0.3 0.24,-0.89 0.24,-1.78l0 -16.32 -5.12 0 0 -6.42c1.83,-0.1 3.57,-0.3 5.24,-0.59 1.67,-0.3 3.16,-0.65 4.48,-1.06 0.85,-0.27 1.9,-0.73 3.14,-1.37l3.29 0zm24.57 0l0 4.96c1.86,-1.91 3.45,-3.22 4.79,-3.92 1.35,-0.69 2.65,-1.04 3.9,-1.04 1.12,0 2.14,0.26 3.02,0.77 0.89,0.51 1.59,1.25 2.11,2.21 0.52,0.96 0.78,1.98 0.78,3.07 0,1.44 -0.48,2.74 -1.44,3.9 -0.95,1.17 -2.3,1.75 -4.02,1.75 -0.46,0 -0.88,-0.03 -1.23,-0.1 -0.35,-0.07 -1.11,-0.3 -2.26,-0.69 -0.61,-0.18 -1.1,-0.27 -1.49,-0.27 -0.6,0 -1.59,0.37 -2.97,1.13l0 13.37c0,1.15 0.08,1.88 0.25,2.23 0.18,0.34 0.46,0.59 0.85,0.75 0.39,0.16 1.24,0.24 2.56,0.24l1.53 0 0 6.6 -21.34 0 0 -6.6 1.76 0c1.27,0 2.06,-0.07 2.37,-0.2 0.31,-0.14 0.54,-0.38 0.71,-0.73 0.16,-0.34 0.25,-1.1 0.25,-2.29l0 -15.7 -5.09 0 0 -6.57c3.75,-0.23 7.66,-1.19 11.72,-2.87l3.24 0zm38.15 14.27l0 -2.53c0,-1.51 -0.13,-2.55 -0.38,-3.12 -0.26,-0.57 -0.72,-1.04 -1.38,-1.41 -0.67,-0.39 -1.5,-0.58 -2.49,-0.58 -0.77,0 -1.45,0.13 -2.08,0.38 -0.62,0.25 -1.12,0.57 -1.49,0.96 -0.36,0.39 -0.79,1.14 -1.27,2.26 -0.63,1.41 -1.37,2.43 -2.23,3.05 -0.87,0.61 -1.89,0.92 -3.07,0.92 -1.47,0 -2.68,-0.46 -3.62,-1.38 -0.95,-0.91 -1.42,-2.03 -1.42,-3.38 0,-1.52 0.48,-2.89 1.45,-4.07 1.29,-1.57 3.21,-2.86 5.77,-3.86 2.56,-1.01 5.44,-1.51 8.64,-1.51 3.21,0 5.94,0.52 8.18,1.54 2.25,1.03 3.81,2.26 4.71,3.68 0.89,1.43 1.32,3.6 1.32,6.52l0 12.25c0,1.49 0.08,2.46 0.25,2.88 0.16,0.42 0.51,0.79 1.04,1.11 0.53,0.33 1.12,0.48 1.76,0.48 0.65,0 1.51,-0.18 2.59,-0.55l0 6.68c-1.96,0.62 -3.83,0.92 -5.64,0.92 -2.11,0 -3.93,-0.34 -5.42,-1.02 -1.49,-0.7 -2.76,-1.72 -3.77,-3.09 -2.3,1.48 -4.39,2.55 -6.28,3.17 -1.88,0.63 -3.7,0.94 -5.44,0.94 -3.29,0 -5.96,-0.92 -7.99,-2.76 -2.03,-1.83 -3.04,-4.09 -3.04,-6.79 0,-1.52 0.35,-2.92 1.06,-4.21 0.69,-1.27 1.74,-2.39 3.14,-3.35 1.4,-0.95 3.55,-1.8 6.46,-2.54 2.92,-0.75 6.47,-1.27 10.64,-1.59zm0 5.68c-3.03,0.43 -5.15,0.87 -6.4,1.31 -1.24,0.45 -2.14,1.01 -2.66,1.68 -0.53,0.67 -0.8,1.36 -0.8,2.06 0,0.93 0.34,1.68 1.04,2.3 0.7,0.61 1.63,0.92 2.8,0.92 0.77,0 1.65,-0.19 2.64,-0.58 1,-0.38 2.14,-0.96 3.38,-1.7l0 -5.99z"/>
  </g>
  <g id="_2243299225440">
   <path class="fil0" d="M1380.53 240.67c50.98,0 92.5,-39.88 92.5,-92.91l0.03 -147.76 -185.1 0.06 0.08 147.93c0,53.03 41.52,92.68 92.49,92.68zm0 -9.25c45.88,0 83.25,-35.7 83.25,-83.59l-0.02 -138.29 -166.51 -0.28 0.03 138.56c0,47.89 37.36,83.6 83.25,83.6zm0 -4.63c43.33,0 78.61,-33.61 78.61,-78.92l-0.17 -133.7 -157.1 -0.29 0.04 133.97c0,45.31 35.28,78.94 78.62,78.94zm0 -4.63c40.78,0 73.98,-31.5 73.98,-74.23l0.04 -129.42 -147.87 0.3 -0.14 129.11c0,42.73 33.2,74.24 73.99,74.24zm37.03 -88.86c2.05,0 3.72,1.66 3.72,3.7l-0.04 11.1 14.82 0c0.01,-9.19 -3.74,-18.57 -7.37,-25.9 1.94,-1.85 3.76,-4.7 3.76,-7.43l0 -12.95 -7.45 0 0 5.62 -3.73 0 -0.02 -5.61 -7.39 0 0 5.67 -3.67 -0.02 -0.02 -5.65 -7.5 0c0.01,4.33 0.02,8.65 0.03,12.98 0.03,2.6 1.87,5.51 3.84,7.42 -3.61,7.18 -7.49,16.67 -7.5,25.83l14.83 0.04 -0.02 -11.1c0,-2.04 1.67,-3.7 3.71,-3.7zm-74.05 0c2.04,0 3.71,1.66 3.71,3.7l-0.03 11.1 14.82 0c0.01,-9.19 -3.75,-18.57 -7.37,-25.9 1.94,-1.85 3.75,-4.7 3.75,-7.43l0.01 -12.95 -7.45 0 0 5.62 -3.74 0 -0.02 -5.61 -7.38 0 0 5.67 -3.67 -0.02 -0.02 -5.65 -7.5 0c0.01,4.33 0.02,8.65 0.03,12.98 0.03,2.6 1.87,5.51 3.84,7.42 -3.61,7.18 -7.5,16.67 -7.51,25.83l14.84 0.04 -0.02 -11.1c0,-2.04 1.66,-3.7 3.71,-3.7zm37.03 -64.79c2.04,0 3.71,1.66 3.71,3.7l-0.04 11.1 14.83 0c0,-9.2 -3.75,-18.58 -7.37,-25.9 1.94,-1.86 3.75,-4.71 3.75,-7.44l0 -12.94 -7.44 0 0 5.61 -3.74 0 -0.02 -5.61 -7.39 0 0 5.68 -3.66 -0.03 -0.03 -5.65 -7.49 0c0.01,4.33 0.01,8.66 0.02,12.99 0.03,2.59 1.88,5.5 3.84,7.41 -3.6,7.18 -7.49,16.67 -7.5,25.83l14.84 0.04 -0.03 -11.09c0,-2.04 1.67,-3.7 3.72,-3.7z"/>
   <path class="fil0" d="M1287.64 293.58l3.47 0c-0.26,2.16 -1.25,3.8 -2.97,4.93 -1.72,1.13 -4.08,1.7 -7.09,1.7 -3.62,0 -6.47,-0.98 -8.53,-2.96 -2.06,-1.97 -3.09,-4.69 -3.09,-8.15 0,-3.42 1.07,-6.13 3.2,-8.12 2.13,-1.99 5.04,-2.99 8.71,-2.99 2.89,0 5.15,0.54 6.81,1.6 1.65,1.07 2.56,2.56 2.72,4.5l-3.45 0c-0.14,-1.13 -0.78,-2.03 -1.9,-2.69 -1.12,-0.66 -2.57,-0.99 -4.36,-0.99 -2.65,0 -4.72,0.76 -6.22,2.29 -1.49,1.53 -2.24,3.66 -2.24,6.4 0,2.81 0.76,4.97 2.28,6.48 1.52,1.51 3.69,2.27 6.53,2.27 1.78,0 3.22,-0.38 4.3,-1.13 1.08,-0.76 1.69,-1.8 1.83,-3.14zm38.53 -4.48c0,-2.5 -0.83,-4.55 -2.46,-6.15 -1.64,-1.59 -3.75,-2.39 -6.32,-2.39 -2.63,0 -4.77,0.79 -6.42,2.37 -1.66,1.59 -2.49,3.65 -2.49,6.17 0,2.52 0.83,4.56 2.47,6.13 1.65,1.58 3.78,2.37 6.41,2.37 2.61,0 4.73,-0.79 6.36,-2.37 1.63,-1.57 2.45,-3.61 2.45,-6.13zm-8.84 11.08c-1.82,0 -3.44,-0.24 -4.84,-0.73 -1.41,-0.48 -2.66,-1.23 -3.76,-2.23 -1.16,-1.07 -2.04,-2.3 -2.65,-3.68 -0.61,-1.39 -0.92,-2.86 -0.92,-4.44 0,-1.59 0.31,-3.09 0.92,-4.49 0.61,-1.4 1.49,-2.62 2.65,-3.66 1.11,-1.01 2.37,-1.75 3.78,-2.24 1.4,-0.48 3.01,-0.72 4.82,-0.72 1.82,0 3.43,0.25 4.85,0.73 1.41,0.49 2.67,1.23 3.78,2.23 1.14,1.04 2.03,2.26 2.65,3.66 0.62,1.4 0.92,2.9 0.92,4.49 0,1.59 -0.3,3.07 -0.91,4.46 -0.62,1.39 -1.5,2.61 -2.66,3.66 -1.12,1 -2.38,1.75 -3.79,2.23 -1.41,0.49 -3.02,0.73 -4.84,0.73zm28.51 -0.33l0 -21.5 3.12 0 0 18.84 12.67 0 0 2.66 -15.79 0zm30.88 0l0 -21.5 16.46 0 0 2.55 -13.44 0 0 6.29 12.49 0 0 2.57 -12.49 0 0 7.4 13.84 0 0 2.69 -16.86 0zm53.74 -1.85c-1.6,0.72 -3.25,1.27 -4.95,1.65 -1.72,0.37 -3.45,0.56 -5.19,0.56 -3.91,0 -6.98,-0.98 -9.22,-2.95 -2.23,-1.96 -3.34,-4.64 -3.34,-8.04 0,-3.52 1.15,-6.26 3.46,-8.24 2.31,-1.97 5.54,-2.96 9.69,-2.96 2.68,0 4.85,0.53 6.49,1.6 1.64,1.07 2.57,2.53 2.79,4.41l-3.24 0c-0.29,-1.12 -0.99,-1.98 -2.1,-2.59 -1.11,-0.6 -2.55,-0.91 -4.31,-0.91 -2.92,0 -5.24,0.78 -6.94,2.34 -1.7,1.56 -2.55,3.68 -2.55,6.35 0,2.65 0.85,4.74 2.54,6.26 1.69,1.52 4.02,2.28 6.98,2.28 1.35,0 2.6,-0.11 3.76,-0.33 1.16,-0.21 2.19,-0.53 3.11,-0.95l0 -5.41 -6.8 0 0 -2.45 9.82 0 0 9.38zm17.22 1.85l0 -21.5 3.13 0 0 21.5 -3.13 0zm40.54 -10.75c0,-2.5 -0.82,-4.55 -2.46,-6.15 -1.64,-1.59 -3.74,-2.39 -6.31,-2.39 -2.63,0 -4.77,0.79 -6.43,2.37 -1.65,1.59 -2.48,3.65 -2.48,6.17 0,2.52 0.82,4.56 2.47,6.13 1.64,1.58 3.78,2.37 6.41,2.37 2.61,0 4.72,-0.79 6.36,-2.37 1.62,-1.57 2.44,-3.61 2.44,-6.13zm-8.83 11.08c-1.83,0 -3.44,-0.24 -4.85,-0.73 -1.4,-0.48 -2.66,-1.23 -3.76,-2.23 -1.15,-1.07 -2.04,-2.3 -2.64,-3.68 -0.62,-1.39 -0.93,-2.86 -0.93,-4.44 0,-1.59 0.31,-3.09 0.93,-4.49 0.6,-1.4 1.49,-2.62 2.64,-3.66 1.11,-1.01 2.37,-1.75 3.78,-2.24 1.4,-0.48 3.01,-0.72 4.83,-0.72 1.81,0 3.43,0.25 4.84,0.73 1.42,0.49 2.67,1.23 3.78,2.23 1.15,1.04 2.04,2.26 2.65,3.66 0.62,1.4 0.93,2.9 0.93,4.49 0,1.59 -0.31,3.07 -0.92,4.46 -0.61,1.39 -1.5,2.61 -2.66,3.66 -1.12,1 -2.38,1.75 -3.79,2.23 -1.4,0.49 -3.02,0.73 -4.83,0.73z"/>
   <path class="fil0" d="M1259.24 313.5l9.47 0 12.68 32.25c0.68,1.71 1.29,2.77 1.83,3.17 0.53,0.4 1.52,0.6 2.94,0.58l0 5.77 -19.96 0 0 -5.77 1.21 -0.04c1.1,0 1.88,-0.15 2.33,-0.43 0.44,-0.29 0.66,-0.65 0.66,-1.07 0,-0.35 -0.19,-1.09 -0.58,-2.21l-1.24 -3.81 -12.86 0 -1.57 4.23c-0.32,0.89 -0.48,1.49 -0.48,1.76 0,0.32 0.11,0.62 0.35,0.87 0.23,0.27 0.61,0.45 1.14,0.57 0.34,0.09 1.29,0.13 2.84,0.13l0 5.77 -16.34 0 0 -5.77c1.04,0 1.82,-0.1 2.3,-0.28 0.48,-0.17 0.88,-0.45 1.19,-0.81 0.32,-0.35 0.66,-1.02 1.04,-2l13.05 -32.91zm-1.31 22.49l8.44 0 -4.11 -11.5 -4.33 11.5zm44.15 -24.67l0 35.03c0,1.18 0.05,1.88 0.15,2.09 0.13,0.4 0.46,0.69 0.94,0.87 0.3,0.12 1.12,0.19 2.45,0.19l1.05 0 0 5.77 -18.72 0 0 -5.77 1.15 0c1.21,0 1.99,-0.08 2.33,-0.23 0.34,-0.15 0.6,-0.39 0.75,-0.72 0.17,-0.33 0.25,-1.07 0.25,-2.2l0 -26.7 -4.48 0 0 -5.82c3.61,-0.23 7.34,-1.07 11.19,-2.51l2.94 0zm21.12 3.8l0 10.27 9.74 0 0 6.38 -9.74 0 0 10.42c0,2.35 0.12,3.86 0.38,4.54 0.25,0.66 0.71,1.19 1.4,1.59 0.91,0.54 1.95,0.81 3.12,0.81 2.08,0 4.14,-0.66 6.2,-2.01l0 6.41c-1.75,0.82 -3.35,1.39 -4.76,1.73 -1.43,0.33 -2.97,0.49 -4.62,0.49 -1.88,0 -3.53,-0.23 -4.98,-0.7 -1.44,-0.48 -2.67,-1.14 -3.68,-2.01 -1.03,-0.86 -1.73,-1.8 -2.12,-2.77 -0.4,-0.98 -0.6,-2.4 -0.6,-4.25l0 -14.25 -4.53 0 0 -5.75c1.61,-0.52 2.99,-1.26 4.14,-2.24 1.15,-0.95 2.07,-2.12 2.77,-3.48 0.7,-1.36 1.17,-3.09 1.44,-5.18l5.84 0zm33.19 22.04l0 -2.22c0,-1.31 -0.11,-2.22 -0.33,-2.72 -0.23,-0.5 -0.63,-0.91 -1.21,-1.24 -0.59,-0.34 -1.31,-0.5 -2.18,-0.5 -0.67,0 -1.27,0.11 -1.82,0.33 -0.54,0.22 -0.98,0.5 -1.3,0.83 -0.32,0.35 -0.69,1 -1.11,1.99 -0.55,1.23 -1.2,2.12 -1.95,2.66 -0.77,0.53 -1.66,0.81 -2.69,0.81 -1.29,0 -2.34,-0.4 -3.17,-1.21 -0.82,-0.79 -1.24,-1.77 -1.24,-2.96 0,-1.33 0.42,-2.52 1.27,-3.56 1.13,-1.37 2.81,-2.5 5.05,-3.38 2.24,-0.88 4.76,-1.31 7.56,-1.31 2.81,0 5.2,0.44 7.16,1.34 1.97,0.9 3.34,1.98 4.12,3.22 0.78,1.25 1.16,3.15 1.16,5.7l0 10.72c0,1.31 0.07,2.16 0.21,2.53 0.15,0.37 0.45,0.69 0.91,0.97 0.47,0.29 0.98,0.42 1.54,0.42 0.57,0 1.32,-0.16 2.27,-0.48l0 5.84c-1.71,0.54 -3.35,0.81 -4.93,0.81 -1.85,0 -3.44,-0.3 -4.74,-0.9 -1.31,-0.6 -2.42,-1.5 -3.31,-2.7 -2.01,1.3 -3.84,2.23 -5.49,2.77 -1.65,0.55 -3.24,0.83 -4.76,0.83 -2.88,0 -5.22,-0.81 -7,-2.41 -1.77,-1.61 -2.66,-3.59 -2.66,-5.95 0,-1.33 0.31,-2.55 0.93,-3.68 0.61,-1.11 1.53,-2.09 2.74,-2.93 1.23,-0.84 3.11,-1.58 5.66,-2.23 2.56,-0.65 5.66,-1.11 9.31,-1.39zm0 4.97c-2.64,0.38 -4.5,0.76 -5.6,1.15 -1.08,0.39 -1.87,0.88 -2.32,1.46 -0.46,0.6 -0.7,1.2 -0.7,1.81 0,0.81 0.3,1.47 0.91,2.02 0.61,0.53 1.42,0.8 2.44,0.8 0.67,0 1.45,-0.17 2.32,-0.51 0.87,-0.34 1.87,-0.84 2.95,-1.49l0 -5.24zm31.41 -17.45l0 3.97c1.75,-1.33 3.53,-2.33 5.35,-2.98 1.82,-0.67 3.66,-0.99 5.53,-0.99 1.2,0 2.34,0.17 3.44,0.52 1.1,0.34 2.02,0.8 2.75,1.35 0.75,0.57 1.41,1.32 2.02,2.28 1.96,-1.47 3.83,-2.53 5.62,-3.19 1.8,-0.64 3.63,-0.96 5.49,-0.96 1.61,0 3.06,0.28 4.38,0.86 1.31,0.58 2.37,1.36 3.19,2.35 0.81,0.99 1.35,2.06 1.59,3.22 0.16,0.72 0.25,1.77 0.25,3.14l0 12.4c0,1.02 0.07,1.67 0.22,1.98 0.15,0.29 0.41,0.52 0.77,0.68 0.27,0.12 1,0.19 2.21,0.19l1.33 0 0 5.77 -17.7 0 0 -5.77c1.31,0 2.14,-0.08 2.48,-0.2 0.35,-0.13 0.6,-0.34 0.76,-0.63 0.16,-0.29 0.24,-0.92 0.24,-1.9l0 -10.88c0,-1.25 -0.08,-2.08 -0.26,-2.49 -0.16,-0.41 -0.51,-0.76 -0.99,-1.05 -0.5,-0.29 -1.09,-0.43 -1.78,-0.43 -0.78,0 -1.63,0.17 -2.54,0.52 -0.91,0.35 -2.25,1.11 -4.03,2.29l0 11.71c0,1.16 0.09,1.88 0.25,2.19 0.16,0.29 0.45,0.52 0.85,0.68 0.24,0.11 1.03,0.17 2.39,0.19l0 5.77 -16.61 0 0 -5.77c1.37,-0.02 2.21,-0.1 2.51,-0.22 0.3,-0.12 0.53,-0.34 0.69,-0.65 0.16,-0.33 0.25,-1.06 0.25,-2.19l0 -10.27c0,-1.57 -0.15,-2.63 -0.43,-3.15 -0.44,-0.77 -1.23,-1.16 -2.36,-1.16 -0.56,0 -1.16,0.07 -1.78,0.2 -0.63,0.15 -1.25,0.37 -1.85,0.67 -0.32,0.16 -1.14,0.67 -2.48,1.55l-0.7 0.45 0 11.71c0,1.12 0.06,1.81 0.19,2.1 0.12,0.27 0.35,0.51 0.71,0.68 0.35,0.18 0.96,0.28 1.83,0.28l0.82 0 0 5.77 -17.68 0 0 -5.77 1.18 0c1.25,0 2.03,-0.08 2.35,-0.2 0.32,-0.13 0.55,-0.37 0.71,-0.69 0.16,-0.33 0.24,-1.05 0.24,-2.17l0 -13.48 -4.48 0 0 -5.77c3.69,-0.34 7.11,-1.18 10.23,-2.51l2.85 0zm57.52 -13.36c1.52,0 2.84,0.53 3.91,1.6 1.08,1.06 1.62,2.36 1.62,3.87 0,1.55 -0.54,2.85 -1.62,3.92 -1.07,1.06 -2.39,1.59 -3.91,1.59 -1.53,0 -2.85,-0.53 -3.92,-1.59 -1.08,-1.07 -1.62,-2.36 -1.62,-3.88 0,-1.5 0.56,-2.79 1.66,-3.88 1.11,-1.09 2.4,-1.63 3.88,-1.63zm4.9 13.36l0 22.12c0,1.05 0.05,1.71 0.18,1.94 0.12,0.24 0.34,0.43 0.65,0.56 0.31,0.12 1.01,0.2 2.1,0.2l1.64 0 0 5.77 -18.71 0 0 -5.77 1.61 0c1.04,0 1.72,-0.07 2.02,-0.18 0.29,-0.1 0.5,-0.28 0.65,-0.55 0.13,-0.25 0.21,-0.78 0.21,-1.55l0 -14.29 -4.49 0 0 -5.62c1.6,-0.08 3.13,-0.25 4.59,-0.51 1.46,-0.27 2.77,-0.57 3.92,-0.93 0.75,-0.24 1.66,-0.63 2.75,-1.19l2.88 0zm21.5 0l0 4.34c1.63,-1.68 3.02,-2.82 4.2,-3.44 1.17,-0.6 2.31,-0.9 3.41,-0.9 0.98,0 1.86,0.22 2.64,0.67 0.77,0.45 1.39,1.09 1.85,1.93 0.45,0.84 0.68,1.74 0.68,2.69 0,1.26 -0.42,2.4 -1.26,3.41 -0.84,1.02 -2.01,1.53 -3.52,1.53 -0.41,0 -0.77,-0.03 -1.08,-0.09 -0.31,-0.06 -0.97,-0.25 -1.98,-0.6 -0.53,-0.15 -0.96,-0.24 -1.3,-0.24 -0.53,0 -1.39,0.33 -2.6,0.99l0 11.71c0,1 0.07,1.64 0.22,1.95 0.16,0.29 0.41,0.51 0.75,0.65 0.34,0.14 1.08,0.22 2.24,0.22l1.33 0 0 5.77 -18.67 0 0 -5.77 1.54 0c1.11,0 1.8,-0.07 2.07,-0.19 0.27,-0.12 0.48,-0.33 0.62,-0.63 0.15,-0.3 0.22,-0.96 0.22,-2l0 -13.75 -4.45 0 0 -5.74c3.28,-0.21 6.7,-1.04 10.25,-2.51l2.84 0zm33.38 12.48l0 -2.22c0,-1.31 -0.11,-2.22 -0.33,-2.72 -0.23,-0.5 -0.63,-0.91 -1.21,-1.24 -0.58,-0.34 -1.31,-0.5 -2.18,-0.5 -0.67,0 -1.27,0.11 -1.81,0.33 -0.55,0.22 -0.98,0.5 -1.3,0.83 -0.32,0.35 -0.7,1 -1.12,1.99 -0.55,1.23 -1.2,2.12 -1.95,2.66 -0.76,0.53 -1.65,0.81 -2.69,0.81 -1.29,0 -2.34,-0.4 -3.17,-1.21 -0.82,-0.79 -1.24,-1.77 -1.24,-2.96 0,-1.33 0.43,-2.52 1.27,-3.56 1.13,-1.37 2.81,-2.5 5.06,-3.38 2.23,-0.88 4.76,-1.31 7.55,-1.31 2.81,0 5.2,0.44 7.16,1.34 1.97,0.9 3.34,1.98 4.12,3.22 0.78,1.25 1.16,3.15 1.16,5.7l0 10.72c0,1.31 0.07,2.16 0.22,2.53 0.14,0.37 0.44,0.69 0.9,0.97 0.47,0.29 0.99,0.42 1.54,0.42 0.57,0 1.32,-0.16 2.28,-0.48l0 5.84c-1.72,0.54 -3.36,0.81 -4.94,0.81 -1.85,0 -3.44,-0.3 -4.74,-0.9 -1.31,-0.6 -2.42,-1.5 -3.31,-2.7 -2.01,1.3 -3.84,2.23 -5.49,2.77 -1.64,0.55 -3.23,0.83 -4.76,0.83 -2.88,0 -5.22,-0.81 -6.99,-2.41 -1.78,-1.61 -2.67,-3.59 -2.67,-5.95 0,-1.33 0.31,-2.55 0.93,-3.68 0.61,-1.11 1.53,-2.09 2.75,-2.93 1.23,-0.84 3.11,-1.58 5.66,-2.23 2.55,-0.65 5.66,-1.11 9.3,-1.39zm0 4.97c-2.64,0.38 -4.5,0.76 -5.59,1.15 -1.09,0.39 -1.87,0.88 -2.33,1.46 -0.46,0.6 -0.7,1.2 -0.7,1.81 0,0.81 0.3,1.47 0.91,2.02 0.61,0.53 1.42,0.8 2.45,0.8 0.67,0 1.44,-0.17 2.31,-0.51 0.88,-0.34 1.87,-0.84 2.95,-1.49l0 -5.24z"/>
   <path class="fil1" d="M1255.83 365.25l19.8 0 0 5.61 -1.74 0c-0.97,0 -1.57,0.05 -1.82,0.15 -0.47,0.19 -0.81,0.48 -1.02,0.88 -0.2,0.4 -0.31,1.03 -0.31,1.9l0 23.15c0,0.94 0.04,1.5 0.13,1.72 0.09,0.21 0.27,0.38 0.53,0.51 0.28,0.12 0.8,0.18 1.57,0.18 2.61,0 4.69,-0.33 6.27,-1.01 1.58,-0.68 3,-1.77 4.27,-3.27 1.28,-1.5 2.37,-3.53 3.28,-6.12l5.35 1.84 -5.35 15.06 -30.96 0 0 -5.6 1.94 0c0.79,0 1.39,-0.11 1.8,-0.32 0.4,-0.22 0.7,-0.51 0.87,-0.86 0.19,-0.36 0.28,-0.99 0.28,-1.88l0 -23.01c0,-0.98 -0.09,-1.67 -0.28,-2.1 -0.17,-0.43 -0.43,-0.73 -0.77,-0.93 -0.34,-0.19 -0.9,-0.29 -1.7,-0.29l-2.14 0 0 -5.61zm55.64 23.02l0 -2.14c0,-1.27 -0.11,-2.15 -0.32,-2.62 -0.22,-0.49 -0.61,-0.89 -1.17,-1.21 -0.57,-0.31 -1.28,-0.47 -2.11,-0.47 -0.65,0 -1.23,0.11 -1.76,0.32 -0.53,0.21 -0.94,0.47 -1.25,0.8 -0.32,0.33 -0.68,0.97 -1.08,1.91 -0.53,1.19 -1.16,2.05 -1.88,2.57 -0.73,0.52 -1.59,0.78 -2.58,0.78 -1.24,0 -2.26,-0.39 -3.06,-1.16 -0.79,-0.78 -1.19,-1.73 -1.19,-2.88 0,-1.29 0.41,-2.44 1.22,-3.44 1.1,-1.35 2.72,-2.44 4.87,-3.29 2.16,-0.85 4.58,-1.28 7.28,-1.28 2.7,0 4.99,0.44 6.89,1.31 1.89,0.87 3.21,1.91 3.96,3.11 0.74,1.22 1.12,3.06 1.12,5.54l0 10.38c0,1.29 0.07,2.1 0.21,2.46 0.13,0.36 0.42,0.67 0.87,0.94 0.45,0.27 0.95,0.41 1.49,0.41 0.55,0 1.28,-0.16 2.2,-0.47l0 5.7c-1.65,0.53 -3.24,0.79 -4.76,0.79 -1.79,0 -3.31,-0.29 -4.58,-0.87 -1.26,-0.59 -2.33,-1.46 -3.18,-2.64 -1.95,1.27 -3.71,2.17 -5.3,2.71 -1.58,0.53 -3.11,0.8 -4.59,0.8 -2.78,0 -5.03,-0.79 -6.75,-2.35 -1.7,-1.55 -2.56,-3.48 -2.56,-5.77 0,-1.3 0.3,-2.49 0.9,-3.57 0.59,-1.09 1.48,-2.04 2.65,-2.86 1.18,-0.81 3,-1.53 5.47,-2.16 2.47,-0.63 5.46,-1.08 8.99,-1.35zm0 4.83c-2.56,0.36 -4.37,0.74 -5.42,1.12 -1.05,0.38 -1.81,0.84 -2.26,1.42 -0.44,0.58 -0.67,1.16 -0.67,1.76 0,0.77 0.29,1.42 0.87,1.95 0.59,0.52 1.39,0.78 2.38,0.78 0.64,0 1.39,-0.17 2.24,-0.5 0.85,-0.32 1.8,-0.81 2.86,-1.45l0 -5.08zm68.49 -27.85l4.13 0 3.98 14.58 -5.41 1.57c-1.81,-3.47 -3.51,-5.92 -5.1,-7.37 -2.21,-2 -4.61,-2.99 -7.19,-2.99 -1.88,0 -3.64,0.52 -5.28,1.57 -1.64,1.04 -2.94,2.58 -3.9,4.61 -0.97,2.04 -1.44,4.41 -1.44,7.14 0,4.15 1.1,7.73 3.3,10.73 2.2,3 5.09,4.51 8.66,4.51 2.28,0 4.45,-0.65 6.55,-1.95 2.62,-1.61 4.88,-3.76 6.78,-6.47l4.51 3.35c-2.93,3.99 -5.6,6.77 -8.02,8.34 -3.75,2.43 -7.91,3.64 -12.51,3.64 -3.82,0 -7.28,-0.91 -10.38,-2.74 -3.09,-1.83 -5.55,-4.39 -7.4,-7.68 -1.84,-3.3 -2.76,-6.89 -2.76,-10.79 0,-3.87 0.89,-7.4 2.69,-10.58 1.79,-3.19 4.23,-5.67 7.33,-7.45 3.09,-1.78 6.54,-2.67 10.34,-2.67 3.86,0 7.24,0.8 10.15,2.4l0.97 -1.75zm21.71 -2.08c1.48,0 2.73,0.51 3.77,1.56 1.05,1.03 1.56,2.28 1.56,3.75 0,1.5 -0.51,2.76 -1.56,3.8 -1.04,1.04 -2.29,1.56 -3.77,1.56 -1.48,0 -2.74,-0.52 -3.78,-1.56 -1.04,-1.04 -1.56,-2.29 -1.56,-3.77 0,-1.45 0.54,-2.7 1.6,-3.76 1.08,-1.06 2.32,-1.58 3.74,-1.58zm4.74 12.99l0 21.48c0,1.02 0.06,1.65 0.18,1.88 0.11,0.23 0.31,0.41 0.62,0.54 0.3,0.13 0.98,0.19 2.03,0.19l1.58 0 0 5.6 -18.01 0 0 -5.6 1.54 0c1.01,0 1.65,-0.05 1.93,-0.16 0.28,-0.11 0.49,-0.29 0.63,-0.54 0.13,-0.24 0.2,-0.75 0.2,-1.51l0 -13.83 -4.3 0 0 -5.48c1.53,-0.08 3.01,-0.24 4.42,-0.5 1.4,-0.25 2.66,-0.56 3.76,-0.9 0.72,-0.23 1.6,-0.62 2.65,-1.17l2.77 0zm21.03 0l0 3.87c1.69,-1.3 3.41,-2.27 5.15,-2.91 1.75,-0.64 3.53,-0.96 5.32,-0.96 1.16,0 2.25,0.17 3.31,0.51 1.06,0.34 1.94,0.79 2.65,1.32 0.71,0.55 1.36,1.28 1.94,2.21 1.88,-1.43 3.68,-2.47 5.41,-3.09 1.73,-0.63 3.48,-0.95 5.27,-0.95 1.54,0 2.96,0.28 4.22,0.85 1.26,0.56 2.28,1.32 3.07,2.27 0.78,0.97 1.29,2.01 1.53,3.14 0.15,0.69 0.23,1.7 0.23,3.04l0 12.03c0,0.99 0.07,1.63 0.22,1.92 0.14,0.28 0.38,0.51 0.72,0.66 0.25,0.12 0.95,0.18 2.09,0.18l1.26 0 0 5.6 -16.93 0 0 -5.6c1.26,0 2.04,-0.06 2.38,-0.19 0.33,-0.13 0.57,-0.33 0.73,-0.61 0.15,-0.28 0.23,-0.9 0.23,-1.84l0 -10.54c0,-1.23 -0.08,-2.03 -0.25,-2.43 -0.17,-0.4 -0.49,-0.74 -0.97,-1.02 -0.47,-0.28 -1.04,-0.42 -1.69,-0.42 -0.77,0 -1.58,0.17 -2.46,0.5 -0.87,0.34 -2.16,1.09 -3.87,2.23l0 11.36c0,1.12 0.08,1.83 0.22,2.12 0.16,0.28 0.43,0.51 0.82,0.66 0.24,0.1 1,0.16 2.3,0.18l0 5.6 -15.98 0 0 -5.6c1.33,-0.02 2.13,-0.09 2.43,-0.2 0.29,-0.12 0.52,-0.33 0.67,-0.63 0.16,-0.32 0.23,-1.02 0.23,-2.12l0 -9.93c0,-1.53 -0.13,-2.54 -0.4,-3.04 -0.43,-0.75 -1.18,-1.13 -2.28,-1.13 -0.54,0 -1.11,0.07 -1.72,0.2 -0.6,0.14 -1.19,0.35 -1.77,0.63 -0.31,0.16 -1.11,0.67 -2.39,1.51l-0.67 0.44 0 11.32c0,1.08 0.05,1.76 0.17,2.02 0.11,0.28 0.34,0.49 0.68,0.67 0.34,0.17 0.92,0.26 1.76,0.26l0.78 0 0 5.6 -16.99 0 0 -5.6 1.14 0c1.2,0 1.94,-0.06 2.24,-0.19 0.3,-0.13 0.53,-0.35 0.69,-0.67 0.14,-0.31 0.23,-1.01 0.23,-2.09l0 -13.03 -4.3 0 0 -5.6c3.56,-0.34 6.84,-1.18 9.85,-2.51l2.73 0zm64.03 12.11l0 -2.14c0,-1.27 -0.11,-2.15 -0.32,-2.62 -0.22,-0.49 -0.6,-0.89 -1.17,-1.21 -0.56,-0.31 -1.27,-0.47 -2.11,-0.47 -0.64,0 -1.23,0.11 -1.76,0.32 -0.52,0.21 -0.94,0.47 -1.25,0.8 -0.31,0.33 -0.67,0.97 -1.08,1.91 -0.53,1.19 -1.15,2.05 -1.88,2.57 -0.72,0.52 -1.59,0.78 -2.57,0.78 -1.24,0 -2.27,-0.39 -3.06,-1.16 -0.8,-0.78 -1.19,-1.73 -1.19,-2.88 0,-1.29 0.4,-2.44 1.22,-3.44 1.09,-1.35 2.71,-2.44 4.87,-3.29 2.15,-0.85 4.58,-1.28 7.27,-1.28 2.7,0 5,0.44 6.9,1.31 1.88,0.87 3.21,1.91 3.95,3.11 0.75,1.22 1.12,3.06 1.12,5.54l0 10.38c0,1.29 0.07,2.1 0.21,2.46 0.13,0.36 0.43,0.67 0.88,0.94 0.44,0.27 0.94,0.41 1.49,0.41 0.54,0 1.28,-0.16 2.19,-0.47l0 5.7c-1.65,0.53 -3.24,0.79 -4.76,0.79 -1.78,0 -3.31,-0.29 -4.58,-0.87 -1.26,-0.59 -2.32,-1.46 -3.18,-2.64 -1.94,1.27 -3.7,2.17 -5.29,2.71 -1.58,0.53 -3.11,0.8 -4.59,0.8 -2.79,0 -5.03,-0.79 -6.75,-2.35 -1.71,-1.55 -2.56,-3.48 -2.56,-5.77 0,-1.3 0.3,-2.49 0.89,-3.57 0.6,-1.09 1.48,-2.04 2.66,-2.86 1.18,-0.81 2.99,-1.53 5.47,-2.16 2.46,-0.63 5.45,-1.08 8.98,-1.35zm0 4.83c-2.55,0.36 -4.36,0.74 -5.42,1.12 -1.05,0.38 -1.8,0.84 -2.25,1.42 -0.45,0.58 -0.68,1.16 -0.68,1.76 0,0.77 0.29,1.42 0.88,1.95 0.58,0.52 1.38,0.78 2.37,0.78 0.65,0 1.4,-0.17 2.25,-0.5 0.84,-0.32 1.8,-0.81 2.85,-1.45l0 -5.08z"/>
  </g>
  <g id="_2243299224224">
   <g>
    <path class="fil1" d="M2198.05 358.79c-3.35,0 -6.09,2.55 -6.09,6.07 0,3.53 2.74,6.07 6.04,6.07 3.35,0 6.1,-2.57 6.1,-6.12 0,-3.5 -2.75,-6.02 -6.05,-6.02zm-0.05 11.06l0 0c-2.67,0 -4.93,-2.09 -4.93,-4.99 0,-2.92 2.29,-5.01 4.98,-5.01 2.67,0 4.94,2.09 4.94,4.99 0,2.92 -2.29,5.01 -4.99,5.01z"/>
    <path class="fil1" d="M2200.85 363.3c0,-1.01 -0.86,-1.74 -2.06,-1.74l-2.1 0 -1.13 0 0 6.35 1.13 0 0 -2.74 1.67 0 1.41 2.74 1.33 0 -1.69 -2.85c0.86,-0.22 1.44,-0.9 1.44,-1.76zm-4.16 0.88l0 0 0 -1.64 2.1 0c0.57,0 0.98,0.33 0.98,0.78 0,0.51 -0.46,0.86 -1.09,0.86l-1.99 0z"/>
    <path class="fil1" d="M2015.24 376.61c-1.1,-1.52 -2.69,-2.77 -4.77,-3.74 -2.08,-0.98 -4.47,-1.47 -7.17,-1.47 -5.17,0 -9.13,1.62 -11.87,4.85 -2.75,3.23 -4.12,7.32 -4.12,12.27 0,5.13 1.52,9.38 4.55,12.74 3.03,3.36 7.39,5.04 13.1,5.04 6.19,0 10.07,-2.02 13.12,-6.22l-1.99 -2.19c-2.21,1.99 -4.43,2.57 -7.15,2.91 -6.17,0.77 -10.14,-3.7 -10.14,-10.21l19.76 0c0.27,-3.08 -0.28,-7.54 -0.83,-9.2 -0.55,-1.66 -1.38,-3.25 -2.49,-4.78zm-16.74 10l0 0c0,-3.1 0.43,-5.7 1.3,-7.74 0.87,-2.04 2.09,-3.06 3.66,-3.06 1.56,0 2.77,1.02 3.64,3.06 0.87,2.04 1.3,4.62 1.3,7.74l-9.9 0z"/>
    <path class="fil1" d="M1920.82 371.4c-5.61,0 -9.98,1.66 -13.1,4.98 -3.12,3.32 -4.68,7.5 -4.68,12.54 0,5.09 1.56,9.27 4.68,12.54 3.12,3.27 7.51,4.91 13.17,4.91 5.62,0 9.96,-1.65 13.04,-4.94 3.07,-3.3 4.61,-7.44 4.61,-12.44 0,-5.09 -1.56,-9.29 -4.68,-12.61 -3.12,-3.32 -7.46,-4.98 -13.04,-4.98zm4.43 26.87l0 0c-1.04,2.46 -2.52,3.69 -4.43,3.69 -1.92,0 -3.41,-1.22 -4.47,-3.67 -1.06,-2.45 -1.59,-5.57 -1.59,-9.37 0,-3.78 0.53,-6.9 1.59,-9.38 1.06,-2.49 2.54,-3.73 4.45,-3.73 1.9,0 3.37,1.24 4.43,3.73 1.06,2.48 1.59,5.62 1.59,9.42 0,3.74 -0.52,6.84 -1.57,9.31z"/>
    <path class="fil1" d="M1856.79 400.93c-3.05,0 -5.52,-1.25 -7.4,-3.78 -1.88,-2.52 -2.73,-6.26 -2.06,-11.08 1.02,-7.32 4.55,-9.92 8.31,-9.76 3.39,0.14 5.14,2.04 7.05,7.17l1.89 -0.07 0.56 -9.14c-2.3,-1.2 -7.03,-2.67 -11.01,-2.67 -6.02,0 -10.55,1.58 -13.58,4.74 -3.03,3.16 -4.54,7.36 -4.54,12.58 0,5.58 1.62,9.9 4.88,12.98 3.25,3.07 7.44,4.61 12.57,4.61 6.02,0 10.03,-2.1 12.9,-6.31l-1.99 -2.19c-2.17,1.95 -5.1,2.92 -7.58,2.92z"/>
    <path class="fil1" d="M1809.73 399.05c-1.9,0.88 -14.19,0.54 -14.19,0.54l0 -9.51 0 -20.73c0,-3.02 0.54,-6.02 1.59,-8.85l0 -2.26 -1.59 0 -0.87 0 -10.01 0 -1.93 0 -0.53 0 0 2.26c1.04,2.8 1.58,5.77 1.59,8.77l0 25.21c-0.01,3 -0.55,5.97 -1.59,8.77l0 2.26 1.59 0 10.88 0 20.44 0 0.86 -10.88 -0.73 -0.2c-1.77,2.08 -3.61,3.73 -5.51,4.62z"/>
    <path class="fil1" d="M1896.27 376.61c-1.11,-1.52 -2.7,-2.77 -4.78,-3.74 -2.08,-0.98 -4.47,-1.47 -7.16,-1.47 -5.18,0 -9.14,1.62 -11.88,4.85 -2.75,3.23 -4.11,7.32 -4.11,12.27 0,5.13 1.51,9.38 4.54,12.74 3.03,3.36 7.4,5.04 13.1,5.04 6.2,0 10.07,-2.02 13.12,-6.22l-1.99 -2.19c-2.21,1.99 -4.43,2.57 -7.15,2.91 -6.17,0.77 -10.14,-3.7 -10.14,-10.21l19.77 0c0.26,-3.08 -0.28,-7.54 -0.84,-9.2 -0.55,-1.66 -1.38,-3.25 -2.48,-4.78zm-16.75 10l0 0c0,-3.1 0.43,-5.7 1.3,-7.74 0.87,-2.04 2.09,-3.06 3.66,-3.06 1.56,0 2.77,1.02 3.64,3.06 0.87,2.04 1.3,4.62 1.3,7.74l-9.9 0z"/>
    <path class="fil1" d="M2091.99 361.32l0 -2.26 -0.63 0 -4.66 0 -0.41 0 -2.58 0 -2.71 0 0 2.26 0.93 2.99c-0.26,0.76 -0.53,1.58 -0.83,2.45l-8.89 25.87 -0.4 0 -7.63 -22.95c-0.49,-1.52 -0.93,-2.89 -1.32,-4.14l1.64 -4.22 0 -2.26 -3.44 0 -2.26 0 -4.61 0 -5.7 0 -0.01 0 0.01 0.04 0 2.22 1.95 3.37 14.2 40.82 9.7 0 14.78 -40.33 2.87 -3.86z"/>
    <path class="fil1" d="M2112.83 375.32c0,0 -1.6,-1.44 -3.45,-2.45 -1.85,-1.01 -3.94,-1.47 -6.9,-1.47 -0.08,0 -0.15,0.01 -0.23,0.01 -0.08,0 -0.16,-0.01 -0.24,-0.01 -5.13,0 -9.03,1.67 -11.71,5.01 -0.79,0.99 -1.45,2.07 -2.01,3.21 -0.15,0.29 -0.29,0.58 -0.42,0.88 -0.01,0.02 -0.01,0.03 -0.02,0.04 -1.03,2.38 -1.56,5.12 -1.56,8.25 0,0.02 0,0.04 0,0.06 0,0.02 0,0.05 0,0.07l0 0c0.03,4.94 1.36,9.06 4.01,12.38 2.68,3.33 6.58,5 11.71,5 4.08,0 7.68,-1.3 10.82,-3.91l5.17 3.25 2.33 0 0 -33.58 -2.33 0 -5.17 3.26zm-5.06 22.95l0 0c-1.04,2.46 -2.52,3.69 -4.43,3.69 -1.92,0 -3.42,-1.22 -4.47,-3.67 -1.07,-2.45 -1.59,-5.57 -1.59,-9.37 0,-3.78 0.52,-6.9 1.59,-9.38 1.05,-2.49 2.54,-3.73 4.45,-3.73 1.89,0 3.37,1.24 4.43,3.73 1.06,2.48 1.59,5.62 1.59,9.42 0,3.74 -0.52,6.84 -1.57,9.31z"/>
    <path class="fil1" d="M2188.57 376.61c-1.11,-1.52 -2.7,-2.77 -4.78,-3.74 -2.08,-0.98 -4.46,-1.47 -7.16,-1.47 -5.18,0 -9.14,1.62 -11.88,4.85 -2.74,3.23 -4.11,7.32 -4.11,12.27 0,5.13 1.51,9.38 4.54,12.74 3.03,3.36 7.4,5.04 13.1,5.04 6.2,0 10.07,-2.02 13.12,-6.22l-1.99 -2.19c-2.21,1.99 -4.42,2.57 -7.14,2.91 -6.18,0.77 -10.14,-3.7 -10.14,-10.21l19.76 0c0.26,-3.08 -0.28,-7.54 -0.83,-9.2 -0.55,-1.66 -1.38,-3.25 -2.49,-4.78zm-16.75 10l0 0c0,-3.1 0.44,-5.7 1.31,-7.74 0.87,-2.04 2.09,-3.06 3.65,-3.06 1.56,0 2.77,1.02 3.64,3.06 0.87,2.04 1.31,4.62 1.31,7.74l-9.91 0z"/>
    <path class="fil1" d="M1826.71 370.39c3.36,0 6.08,-2.71 6.08,-6.07 0,-3.36 -2.72,-6.08 -6.08,-6.08 -3.35,0 -6.07,2.72 -6.07,6.08 0,3.36 2.72,6.07 6.07,6.07z"/>
    <path class="fil1" d="M1984.3 358.79l0 0 -0.86 0 -1.48 0 -7.73 0 -1.93 0 -0.53 0 0 2.26c1.04,2.8 1.58,5.77 1.59,8.77l0 3.04 -0.01 0c-1.63,-0.97 -3.93,-1.46 -6.89,-1.46 -4.87,0 -8.78,1.58 -11.74,4.71 -2.97,3.15 -4.45,7.38 -4.45,12.68 0,5 1.34,9.17 4.01,12.51 2.68,3.33 6.58,5 11.71,5 4.07,0 7.68,-1.3 10.82,-3.91l5.17 3.25 2.33 0 0 -34.94 0 -0.83c0,-3.01 0.54,-6 1.59,-8.82l0 -2.26 -1.6 0zm-12.55 39.48l0 0c-1.04,2.46 -2.51,3.69 -4.43,3.69 -1.92,0 -3.41,-1.22 -4.48,-3.67 -1.05,-2.45 -1.59,-5.57 -1.59,-9.37 0,-3.78 0.54,-6.9 1.59,-9.38 1.07,-2.49 2.55,-3.73 4.46,-3.73 1.89,0 3.37,1.24 4.43,3.73 1.06,2.48 1.59,5.62 1.59,9.42 0,3.74 -0.52,6.84 -1.57,9.31z"/>
    <path class="fil1" d="M2138.78 358.79l-2.32 0 -8.55 0 -1.6 0 0 2.26c1.05,2.83 1.59,5.82 1.59,8.85l0 8.04 0.01 8.42 -0.01 0 0 8.04c0,3.02 -0.54,6.02 -1.59,8.85l0 2.26 1.6 0 8.55 0 2.32 0 1.6 0 0 -2.26c-1.36,-3.83 -1.63,-5.96 -1.59,-8.85l0 -24.5c-0.04,-2.89 0.23,-5.02 1.59,-8.85l0 -2.26 -1.6 0z"/>
    <path class="fil1" d="M2034.1 358.79l-2.32 0 -8.55 0 -1.61 0 0 2.26c1.06,2.83 1.6,5.82 1.6,8.85l0 8.04 0 8.42 0 0 0 8.04c0,3.02 -0.54,6.02 -1.6,8.85l0 2.26 1.61 0 8.55 0 2.32 0 1.6 0 0 -2.26c-1.36,-3.83 -1.63,-5.96 -1.59,-8.85l0 -24.5c-0.04,-2.89 0.23,-5.02 1.59,-8.85l0 -2.26 -1.6 0z"/>
    <path class="fil1" d="M1832.15 373.46l-2.32 0 -8.56 0 -1.59 0 0 2.25c1.05,2.83 1.59,5.83 1.59,8.85l0 -6.62 0 8.42 0 0 0 8.04c0,3.02 -0.54,6.02 -1.59,8.85l0 2.26 1.59 0 8.56 0 2.32 0 1.6 0 0 -2.26c-1.36,-3.83 -1.64,-5.96 -1.59,-8.85l0 -9.84c-0.05,-2.89 0.23,-5.02 1.59,-8.85l0 -2.25 -1.6 0z"/>
    <path class="fil1" d="M2156.74 358.79l-2.32 0 -8.55 0 -1.6 0 0 2.26c1.05,2.83 1.59,5.82 1.59,8.85l0 8.04 0 8.42 0 0 0 8.04c0,3.02 -0.54,6.02 -1.59,8.85l0 2.26 1.6 0 8.55 0 2.32 0 1.6 0 0 -2.26c-1.36,-3.83 -1.64,-5.96 -1.59,-8.85l0 -24.5c-0.05,-2.89 0.23,-5.02 1.59,-8.85l0 -2.26 -1.6 0z"/>
   </g>
   <g>
    <path class="fil1" d="M2030.01 307.97l25.88 0c26.09,0 47.23,-21.15 47.23,-47.22l0 -106.76 0 -153.99 -109.97 0 -109.98 0 0 153.99 0 106.76c0,26.07 21.15,47.22 47.22,47.22l25.88 0c12.95,0 24.65,5.14 33.81,14.3l6.13 0c9.16,-9.16 20.85,-14.3 33.8,-14.3zm-3.88 -22.02l0 0c-6.07,0 -10.99,-4.92 -10.99,-10.99 0,-6.08 4.92,-11 10.99,-11 6.08,0 11,4.92 11,11 0,6.07 -4.92,10.99 -11,10.99zm0 -43.99l0 0c-6.07,0 -10.99,-4.92 -10.99,-10.99 0,-6.08 4.92,-11 10.99,-11 6.08,0 11,4.92 11,11 0,6.07 -4.92,10.99 -11,10.99zm0 -43.99l0 0c-6.07,0 -10.99,-4.92 -10.99,-10.99 0,-6.08 4.92,-11 10.99,-11 6.08,0 11,4.92 11,11 0,6.07 -4.92,10.99 -11,10.99zm44 87.98l0 0c-6.08,0 -11,-4.92 -11,-10.99 0,-6.08 4.92,-11 11,-11 6.07,0 10.99,4.92 10.99,11 0,6.07 -4.92,10.99 -10.99,10.99zm0 -43.99l0 0c-6.08,0 -11,-4.92 -11,-10.99 0,-6.08 4.92,-11 11,-11 6.07,0 10.99,4.92 10.99,11 0,6.07 -4.92,10.99 -10.99,10.99zm0 -43.99l0 0c-6.08,0 -11,-4.92 -11,-10.99 0,-6.08 4.92,-11 11,-11 6.07,0 10.99,4.92 10.99,11 0,6.07 -4.92,10.99 -10.99,10.99zm-109.97 -175.97l0 0c6.07,0 10.99,4.92 10.99,11 0,6.07 -4.92,10.99 -10.99,10.99 -6.08,0 -11,-4.92 -11,-10.99 0,-6.08 4.92,-11 11,-11zm0 43.99l0 0c6.07,0 10.99,4.92 10.99,10.99 0,6.08 -4.92,11.01 -10.99,11.01 -6.08,0 -11,-4.93 -11,-11.01 0,-6.07 4.92,-10.99 11,-10.99zm0 43.99l0 0c6.07,0 10.99,4.92 10.99,10.99 0,6.08 -4.92,11 -10.99,11 -6.08,0 -11,-4.92 -11,-11 0,-6.07 4.92,-10.99 11,-10.99zm-44 -87.98l0 0c6.08,0 11,4.92 11,11 0,6.07 -4.92,10.99 -11,10.99 -6.07,0 -10.99,-4.92 -10.99,-10.99 0,-6.08 4.92,-11 10.99,-11zm0 43.99l0 0c6.08,0 11,4.92 11,10.99 0,6.08 -4.92,11.01 -11,11.01 -6.07,0 -10.99,-4.93 -10.99,-11.01 0,-6.07 4.92,-10.99 10.99,-10.99zm0 43.99l0 0c6.08,0 11,4.92 11,10.99 0,6.08 -4.92,11 -11,11 -6.07,0 -10.99,-4.92 -10.99,-11 0,-6.07 4.92,-10.99 10.99,-10.99zm76.99 185.42l0 0 -64.11 0c-18.43,0 -33.36,-14.94 -33.36,-33.36l0 -108.05 97.47 0 0 -141.42 97.47 0 0 141.42 -97.47 0 0 141.41z"/>
    <path class="fil1" d="M2021.97 53.2l-2.24 78.78 16.15 0 0 -21.66c0,-3.34 2.71,-6.05 6.05,-6.05 3.34,0 6.04,2.71 6.04,6.05l0 21.66 16.07 0 -2.24 -78.78 -39.83 0zm14.54 47.59l0 0 -5.87 0 0 -16.17c0,-1.62 1.31,-2.94 2.93,-2.94 1.62,0 2.94,1.32 2.94,2.94l0 16.17zm8.31 -21.8l0 0 -5.88 0 0 -16.17c0,-1.62 1.32,-2.95 2.94,-2.95 1.62,0 2.94,1.33 2.94,2.95l0 16.17zm9.27 21.8l0 0 -5.88 0 0 -16.17c0,-1.62 1.32,-2.94 2.93,-2.94 1.63,0 2.95,1.32 2.95,2.94l0 16.17z"/>
    <polygon class="fil1" points="2061.79,37.27 2061.79,30.15 2053.64,30.15 2053.64,37.27 2046.51,37.27 2046.51,30.15 2037.34,30.15 2037.34,37.27 2030.22,37.27 2030.22,30.15 2022.08,30.15 2022.08,37.27 2022.08,45.24 2061.79,45.24 "/>
    <path class="fil1" d="M1918.76 214.22c-2.81,6.74 2.51,14.07 9.8,13.48 1.39,5.86 7.49,8.77 12.7,6.96l0 26.51 0 4.65 -4.69 4.06 0 2.95 1.58 0 3.11 0 6.3 0 3.1 0 1.6 0 0 -2.95 -4.7 -4.06 0 -4.65 0 -26.51c5.2,1.81 11.31,-1.1 12.69,-6.96 7.29,0.59 12.62,-6.74 9.81,-13.48 6.24,-3.81 6.24,-12.87 0,-16.67 2.81,-6.75 -2.52,-14.07 -9.81,-13.49 -1.68,-7.11 -10.29,-9.9 -15.84,-5.15 -5.55,-4.75 -14.16,-1.96 -15.85,5.15 -7.29,-0.58 -12.61,6.74 -9.8,13.49 -6.24,3.8 -6.24,12.86 0,16.67z"/>
   </g>
  </g>
  <g id="_2243299233248">
   <g>
    <path class="fil1" d="M2557.86 94.69l-153.18 0c-4.99,0 -9.03,4.04 -9.03,9.03l0 39.93c0,4.99 4.04,9.03 9.03,9.03l43.76 0 0 150.11c0,4.99 4.04,9.03 9.03,9.03l47.61 0c4.98,0 9.03,-4.04 9.03,-9.03l0 -150.11 43.75 0c4.99,0 9.03,-4.04 9.03,-9.03l0 -39.93c0,-4.99 -4.04,-9.03 -9.03,-9.03z"/>
   </g>
   <path class="fil1" d="M2760.08 158.93l-5.8 45.29c-0.32,2.5 1.01,4.91 3.28,5.99l41.28 19.51c5.08,2.4 4.12,9.9 -1.41,10.95l-44.86 8.48c-2.47,0.47 -4.36,2.47 -4.68,4.97l-5.79 45.29c-0.72,5.58 -8.16,6.98 -10.86,2.04l-21.93 -40.04c-1.2,-2.2 -3.69,-3.38 -6.17,-2.92l-44.86 8.49c-5.52,1.04 -9.16,-5.6 -5.3,-9.69l31.3 -33.23c1.73,-1.83 2.08,-4.57 0.87,-6.77l-21.93 -40.05c-2.7,-4.93 2.49,-10.44 7.58,-8.04l41.28 19.51c2.27,1.08 4.98,0.56 6.7,-1.27l31.32 -33.22c3.85,-4.1 10.69,-0.86 9.98,4.71z"/>
   <g>
    <path class="fil1" d="M2778.84 94.69c12.91,0 23.32,9.54 23.32,23.51 0,13.85 -10.41,23.33 -23.32,23.33 -12.97,0 -23.39,-9.48 -23.39,-23.33 0,-13.97 10.42,-23.51 23.39,-23.51zm0 42.66l0 0c10.66,0 18.71,-7.67 18.71,-19.15 0,-11.6 -8.05,-19.33 -18.71,-19.33 -10.48,0 -18.78,7.73 -18.78,19.33 0,11.48 8.3,19.15 18.78,19.15zm0.75 -17.09l0 0 -4.74 0 0 8.98c0,0.27 -0.23,0.5 -0.5,0.5l-4.12 0c-0.27,0 -0.5,-0.23 -0.5,-0.5l0 -23.89c0,-0.27 0.23,-0.5 0.5,-0.5l7.11 0c7.3,0 11.73,1.32 11.73,7.74 0,2.74 -1.31,5.17 -4.49,6.61l5.33 9.8c0.19,0.33 -0.06,0.74 -0.43,0.74l-4.54 0c-0.18,0 -0.35,-0.1 -0.44,-0.27l-4.91 -9.21zm-1.44 -11.35l0 0 -3.3 0 0 7.42 3.61 0c3.93,0 5.49,-1.25 5.49,-3.68 0,-2.99 -2.31,-3.74 -5.8,-3.74z"/>
   </g>
   <g>
    <g>
     <path class="fil1" d="M2546.21 268.6l52.34 -47.19 -47.52 -0.05c-3.88,0 -7.03,-3.15 -7.03,-7.04l0.03 -25.3c0,-3.88 3.16,-7.03 7.04,-7.03l97.68 0.1c3.89,0 7.03,3.15 7.03,7.04l-0.03 26.53c0,3.68 -1.62,7.18 -4.44,9.56l-52.57 47.18 49.92 0.05c3.89,0 7.04,3.16 7.03,7.04l-0.02 25.3c0,3.89 -3.16,7.04 -7.04,7.03l-99.84 -0.09c-3.89,0 -7.03,-3.16 -7.03,-7.05l0.02 -26.54c0.01,-3.67 1.62,-7.16 4.43,-9.54z"/>
    </g>
   </g>
  </g>
  <g id="_2243299235648">
   <g>
    <path class="fil0" d="M3088.78 176.96c15.91,0 24.01,19.54 24.01,28.18 0,7.81 1.01,14.19 -5.42,20.67 -5.65,5.69 -19.08,10.36 -25.02,-4.85 -2.83,-7.26 -11.64,-27.91 -8.84,-35.21 2.1,-5.49 8.28,-8.79 15.27,-8.79zm-86.61 -81.4c0,13.87 19.49,81.8 23.4,95.57 5.98,21.08 15.9,44.14 25.63,63.07 3.28,6.39 9.77,13.55 16.71,13.55 1.8,0 9.43,-2.93 10.65,-3.97 4.6,-3.95 0.18,-6.47 10.22,-6.47 7.9,0 9.19,2.47 22.32,-1.68 18.89,-5.98 37.17,-22.99 37.17,-44.23 0,-12.82 -0.26,-17.35 -5.05,-29.39 -1.52,-3.8 -2.47,-6.18 -4.27,-9.3 -27.64,-47.95 -74.58,-15.41 -78.34,-14.54 -2.87,-5.98 -4.91,-14.97 -7.46,-21.76l-15.36 -44.12c-3.74,-11.4 -6.76,-15.52 -18.93,-15.52 -7.18,0 -16.69,7.77 -16.69,18.79z"/>
    <path class="fil0" d="M3302.72 149.82c0,16.17 1.11,72.15 4.85,83.86 2.65,8.29 7.88,7.11 16.78,8.29 7.83,1.05 13.81,0.38 17.43,-6.14 3.02,-5.48 0.2,-14.69 -0.36,-21.39 -3.82,-46.14 -6.31,-69.79 2.95,-115.85 1.76,-8.79 8.74,-23.03 -3.47,-27.69 -4.75,-1.82 -5.99,-0.68 -11.03,-0.42 -18.29,0.94 -17.84,2.68 -22.53,30.74 -2.54,15.21 -4.62,31.51 -4.62,48.6z"/>
    <path class="fil0" d="M3538.57 192.61c8.44,-11.52 27.14,-5.07 27.14,8.35 0,3.93 -0.69,1.97 -1.05,6.26 -7.15,0 -14.61,-6.12 -20.9,-9.36 -1.14,-0.58 -2.4,-1.04 -3.31,-1.91 -3.04,-2.91 -0.83,-1.36 -1.88,-3.34zm54.27 5.21l0 12.56c-0.24,4.38 -1.17,7.68 -4.3,15.5 -1.78,4.46 -3.87,9.52 -10.31,9.52 -8.5,0 -29.59,-14.44 -39.64,-19.86 -18.38,-9.91 -11.57,12.87 6.71,21.48 3.62,1.71 0.91,-0.46 3.98,2.28l2.86 3.4c-12.21,23.08 -18.49,17.82 -31.11,9.2 -16.2,-11.05 -24.2,-22.73 -24.2,-43.63 0,-12.5 8.81,-27.16 15.38,-33.68 36.09,-35.85 80.62,-1.44 80.63,23.23z"/>
    <path class="fil0" d="M3172.27 166.52c-5.91,-11.18 1.62,-26.33 19.83,-16.7 -1.42,5.32 -17.62,16.11 -19.83,16.7zm-28.17 -4.17c0,20.45 14.94,39.06 29.81,44.28 14.73,5.17 29.45,0.5 41.16,-7.75 4.09,-2.88 9.38,-5.82 9.38,-10.44 0,-6.46 -4.55,-14.15 -8.35,-16.7 -8.21,1.91 -11.52,11.48 -24,11.48 -3.2,0 -6.26,-0.97 -6.26,-4.18 0,-6.32 34.44,-24.03 34.44,-33.39 0,-6.97 -20.77,-28.37 -44.22,-22.31 -14.89,3.84 -31.96,20.94 -31.96,39.01z"/>
    <path class="fil0" d="M3263.06 189.48c8.25,0 13.57,4.43 13.57,12.52 0,4.29 -23.75,-3.01 -24,-3.13 1.05,-4.53 5.66,-9.39 10.43,-9.39zm-40.69 21.92c0,31.82 36.92,41.14 43.67,40.04 6.31,-1.03 9.17,-10.99 10.59,-17.09 -10.22,-6.84 -8.11,-1.76 -17.03,-5.92 -9.06,-4.23 -11.03,-12.86 -6.97,-12.86 7.18,0 13.27,2.05 19.83,3.13 24.82,4.07 28.18,8.45 28.18,-16.7 0,-5.37 -1.61,-10.35 -3.45,-14.29 -3.55,-7.65 -10.9,-13.94 -18.6,-16.89 -29.77,-11.4 -56.22,9.49 -56.22,40.58z"/>
    <path class="fil0" d="M3488.48 195.74c3.65,0 7.59,-10.29 11.04,-16.1 5.04,-8.5 28.62,-49.11 28.62,-52.77 0,-6.17 -16.47,-7.19 -21.92,-7.31l-17.66 31.54c-0.02,0.02 -0.96,2.18 -4.25,0.81 -4.5,-1.87 -4.75,-9.42 -6.87,-20.27l-4.96 -23.22c-1.55,-5.29 -2.48,-5.38 -7.05,-4.74 -23.05,3.23 -20,1.25 -15.35,19.84l13.36 55.52c2.96,11.8 0.9,14.07 11.61,15.53 5,0.68 7.83,1.17 13.43,1.17z"/>
    <path class="fil0" d="M3407.08 186.35c0,-9.59 0.49,-14.61 12.52,-14.61 4.93,0 7.96,2.61 8.35,7.3 -2.65,1.28 -18.08,7.08 -20.87,7.31zm-25.04 0c0,21.92 14.56,41.74 37.56,41.74 6.53,0 18.69,-3.07 22.88,-5.3 5,-2.64 4.55,-10.52 2.66,-16.05 -1.24,-3.62 0.31,-2.64 -3.62,-3.69l-6.22 1c-6.08,2.61 -16.42,4.08 -20.91,-2.05 1.13,-4.24 3,-3.82 9.51,-6.14 3.8,-1.35 7.71,-2.85 11.36,-4.29 13.91,-5.49 25.62,-5.96 13.59,-24.03 -23.73,-35.64 -66.81,-9.51 -66.81,18.81z"/>
    <path class="fil0" d="M3349.68 195.74c0,14.53 2.41,29.55 6.98,39.98 8.27,18.84 25.38,9.88 25.38,-0.32 0,-4.91 -3.23,-11.23 -4.83,-16.05 -1.8,-5.39 -3.59,-10.62 -4.6,-16.26 -1.21,-6.75 -0.94,-11.97 -0.94,-19.95 0,-5.05 0.32,-5.42 -2.29,-8.14 -3.18,-3.33 -15.22,-7.61 -18.05,4.65 -0.75,3.26 -1.65,12.68 -1.65,16.09z"/>
    <path class="fil0" d="M3092.96 296.97c10.6,0 11.48,-0.75 11.48,7.31 0,5.01 -8.31,4.94 -9.16,4.48 -2.32,-1.26 -1.32,-9.55 -2.32,-11.79zm-3.13 36.53c10.93,0 6.26,-3.98 6.26,-15.66 23.75,-1.97 19.03,-26.08 6.32,-29.34 -3.66,-0.94 -15.44,-0.74 -17.37,3.75 -1.46,3.39 3.78,36.94 4.79,41.25z"/>
    <path class="fil0" d="M3157.66 318.89c-5.76,0 -5.03,0.26 -7.3,-3.14 4.61,-0.1 7.37,-1.04 13.56,-1.04 -1.6,1.39 -3.48,4.18 -6.26,4.18zm-2.09 -15.66c4.59,0 4.72,1.25 6.27,4.18l-11.48 0c0.73,-2.74 2.01,-4.18 5.21,-4.18zm-14.6 6.26c0,8.62 3.05,14.69 10.9,17.36 8.1,2.75 13.56,-1.38 17.27,-6.92 -1.77,-3.34 -2.34,-3.52 -4.17,-6.26 15.37,-4.11 -5.61,-28.52 -19.1,-14.92 -1.83,1.85 -4.9,7.48 -4.9,10.74z"/>
    <path class="fil0" d="M3226.54 281.32l0 34.43c0,4.25 1.65,5.62 4.17,7.31 6.29,-3.32 4.15,-4.18 4.13,-13.62 -0.06,-15.95 12.14,-14.66 12.6,-1.02 0.2,5.77 -1.82,13.6 4.14,13.6 4.91,0 3.14,-6.41 3.14,-18.79 0,-10.75 -10.61,-13.56 -19.83,-13.56 0,-6.44 0.92,-11.48 -5.22,-11.48 -2.4,0 -3.13,0.72 -3.13,3.13z"/>
    <path class="fil0" d="M3491.61 314.71c4.63,-1.08 9.54,-3.11 11.48,4.18 -1.66,-0.8 -9.09,-1.89 -11.48,-2.09l0 -2.09zm8.7 21.92l-7.17 0c-6.14,-1.15 -11.96,-5.4 -11.96,-14.61 0,-17.15 18.89,-20.9 26.29,-12.73 1.68,1.85 3.97,5.32 3.97,8.55 0,12.94 -12.26,7.07 -21.92,6.26 1.72,3.24 2.28,5.22 7.31,5.22 2.63,0 10.44,-5.48 10.44,2.09 0,2.5 -3,4.47 -6.96,5.22z"/>
    <path class="fil0" d="M3275.59 313.67c-11.36,0 -8.98,-10.74 -6.29,-13.6 4.5,-4.79 12.55,-0.88 12.55,5.25 0,3.81 -2.88,8.35 -6.26,8.35zm-16.7 -8.35c0,24.3 31.31,20.02 31.31,1.04 0,-23.09 -31.31,-20.59 -31.31,-1.04z"/>
    <path class="fil0" d="M3300.64 306.36c0,-8.97 14.6,-13.31 14.6,0 0,10.99 -14.6,8.85 -14.6,0zm22.95 0c0,-9.55 -6.4,-16.69 -14.61,-16.69 -25.13,0 -17.97,40.86 4.79,31.95 5.44,-2.13 9.82,-8.06 9.82,-15.26z"/>
    <path class="fil0" d="M3369.51 309.49c0,-9.82 14.61,-12.88 14.61,0 0,10.98 -14.61,8.67 -14.61,0zm7.31 15.66c19.85,0 22.47,-32.35 -1.05,-32.35 -17.33,0 -20.26,32.35 1.05,32.35z"/>
    <path class="fil0" d="M3195.23 306.36c0,17.1 19.78,25.27 28.18,9.39l-3.31 -4.01c-4.4,0.91 -5.98,4.01 -9.21,4.01 -7.28,0 -13.38,-15.65 2.08,-15.65 1.82,0 9.4,6.94 9.4,-2.09 0,-4.56 -12.8,-11.8 -22.22,-2.38 -1.7,1.7 -4.92,8.03 -4.92,10.73z"/>
    <path class="fil0" d="M3185.84 313.67l0 3.13c-6.07,0 -10.44,-2.81 -10.44,4.17 0,7.6 19.83,5.66 19.83,-5.22 0,-11.28 -11.32,-10.39 -13.57,-11.47 1.63,-6.11 2.55,-2.09 6.27,-2.09 5.67,0 9.57,-9.39 -5.22,-9.39 -11.79,0 -15.58,20.87 3.13,20.87z"/>
    <path class="fil0" d="M3462.39 305.32c0,3.17 1.81,3.54 4.18,4.17 0,11.34 -5.65,24.01 2.08,24.01 5.37,0 6.27,-18.53 6.27,-22.96 10.33,0 7.84,-6.83 2.08,-7.31 0.55,-6.57 3.75,-3.34 7.46,-6.21 7.49,-5.82 -6.97,-12.62 -13.68,-1.06 -5.84,10.04 -8.39,3.03 -8.39,9.36z"/>
    <path class="fil0" d="M3399.78 302.19c0,6.34 -0.8,9.51 -1.14,15.68 -0.21,3.87 -0.74,10.15 4.27,8.32 4.2,-1.12 4.03,-4.09 4.18,-9.38 0.16,-5.47 1.03,-7.92 1.03,-13.58 5.55,0 6.27,0.44 6.27,-4.17 0,-3.47 -1.88,-3.06 -5.22,-3.13 2.3,-8.62 9.39,-2.56 9.39,-9.39 0,-6.47 -10.66,-5.18 -15.08,1.61 -1.54,2.36 -1.2,2.93 -2.02,4.25 -2.77,4.44 -3.51,0.75 -5.94,4.57 -1.63,2.57 -0.11,4.85 4.26,5.22z"/>
    <path class="fil0" d="M3435.26 285.49c-2.67,1.21 -2.03,-0.56 -3.12,4.19l-2.6 22.54c-2.5,18.39 16.22,21.84 14.69,13.29 -1.59,-8.91 -10.1,6.36 -4.15,-31.1 0.36,-2.25 0.94,-5.29 -0.13,-7.42 -0.79,-1.58 -0.34,-1.32 -2.14,-1.86 -4.95,-1.48 -0.84,-0.42 -2.55,0.36z"/>
    <path class="fil0" d="M3328.81 290.71c0,14.03 -3.27,31.04 12.52,32.35 1.39,-2.08 1.91,-2.89 3.13,-5.22 -0.16,-0.18 -0.39,-0.74 -0.46,-0.57l-3.43 -2.84c-5.11,-3.51 -3.41,-1.63 -3.41,-21.63 0,-7.14 3.69,-14.61 -4.17,-14.61 -4.16,0 -4.18,8.12 -4.18,12.52z"/>
    <path class="fil0" d="M3126.36 330.36c5.81,-8.69 -2.08,-15.66 3.31,-21.7 3.5,-3.93 9.21,-2.66 9.21,-7.51 0,-7.56 -10.07,-2.68 -10.83,-2.4 -5.09,1.87 -0.28,0.59 -4.45,0.11 -8.6,-0.97 -3.89,9.53 -3.53,22.14 0.17,5.95 0.6,8.89 6.29,9.36z"/>
    <path class="fil0" d="M3448.82 328.28c0,3.21 1.45,3.13 4.18,3.13 4.75,0 4.52,-8.41 5.03,-12.71 0.8,-6.74 1.23,-9.99 1.23,-17.55 -8.34,-2 -7.24,-1.82 -8.94,10.88 -0.83,6.14 -1.5,9.85 -1.5,16.25z"/>
    <path class="fil0" d="M3451.96 293.84c0.29,0.56 0.96,2.03 1.47,2.7 0.18,0.23 0.79,0.88 1,1.09l1.7 1.43c7.34,-3.89 7.34,-6.55 0,-10.44 -0.19,0.16 -0.51,0.14 -0.59,0.46 -0.07,0.32 -0.45,0.37 -0.56,0.48 -0.11,0.1 -0.43,0.35 -0.55,0.49 -0.13,0.13 -0.39,0.36 -0.53,0.52 -1.09,1.27 -1.18,1.82 -1.94,3.27z"/>
   </g>
   <g>
    <path class="fil0" d="M3361.83 141.74c-0.82,5.71 6.9,14.8 13.67,17.71 6.85,-0.21 9.02,-0.74 14.4,-3.94 -9.58,1.57 -22.69,-10.74 -23.77,-23.78 -2.71,2.58 -4.3,5.83 -4.3,10.01z"/>
    <path class="fil0" d="M3392.22 153.44c6.72,-17.74 -3.27,-29.6 -23.35,-23.67 0.22,12.12 10.21,23.91 23.35,23.67z"/>
    <path class="fil0" d="M3361.52 159.51c3.15,1.12 6.34,1.37 11,0.42 -6.84,-1.99 -9.55,-6.98 -11.26,-12.19 -0.71,3.94 -0.71,7.86 0.26,11.77z"/>
   </g>
   <g>
    <path class="fil0" d="M3348.03 120.43c2.25,8.15 8.67,10.95 14.36,12.11 4.47,-3.77 5.78,-9.69 3.35,-17.76 -6.34,-22.85 -22.45,-11.42 -17.71,5.65z"/>
    <path class="fil0" d="M3347.57 123.32c-10.03,6.95 0.09,19.79 13.45,9.92 -7.65,-1.64 -10.33,-3.63 -13.45,-9.92z"/>
   </g>
  </g>
  <path class="fil0" d="M694.76 38c39.65,-39.65 104.53,-39.65 144.18,0l101.43 101.43c39.65,39.65 39.65,104.53 0,144.18l-101.43 101.44c-39.65,39.65 -104.53,39.65 -144.18,0l-101.44 -101.44c-39.65,-39.65 -39.65,-104.53 0,-144.18l101.44 -101.43zm30.14 128.91l-9.19 95.92 -4.4 50.57 -0.23 6.32 35.29 0c0.5,-11.43 -2.37,-39 2.53,-47.06 1.95,-20.92 25.93,-20.49 33.32,-8.09 6.22,10.43 3.8,41.05 3.6,55.01l36.79 0 -0.3 -7.27 -4.52 -49.17 -8.95 -95.28 -1.71 -18.97 -80.64 0.01 -1.59 18.01zm48 -63.2l0.03 15 -12.37 0.03 0.17 -14.68c-18.42,-1.72 -8.75,3.64 -13.86,14.75l-7.91 0.31c-0.29,-0.5 -0.61,-1.88 -0.7,-1.62 -0.09,0.26 -0.52,-1.21 -0.63,-1.69 -0.11,-0.5 -0.39,-1.16 -0.5,-1.79l-0.45 -10.7 -13.48 0.13 3.24 32.54 80.88 0.46 3.14 -33.12 -12.22 0.14c-0.23,0.49 -0.34,0.75 -0.4,1.61l-3.55 13.99 -7.91 -0.32 -1.57 -15.42 -11.91 0.38z"/>
 </g>
</svg>
